<?xml version="1.0" encoding="utf-8"?>
<!-- Generator: Adobe Illustrator 19.0.0, SVG Export Plug-In . SVG Version: 6.00 Build 0)  -->
<svg version="1.1" id="Layer_1" xmlns="http://www.w3.org/2000/svg" xmlns:xlink="http://www.w3.org/1999/xlink" x="0px" y="0px"
	 viewBox="0 0 288 288" style="enable-background:new 0 0 288 288;" xml:space="preserve">
<style type="text/css">
	.st0{fill:#1E4FAD;}
	.st1{fill-rule:evenodd;clip-rule:evenodd;fill:#FFFFFF;}
	.st2{fill:#1BA5D4;}
	.st3{fill:url(#SVGID_1_);}
	.st4{fill:#FFFFFF;}
	.st5{fill:#E02A2F;}
	.st6{fill:#0B8F21;}
	.st7{fill:#E83D80;}
	.st8{fill:#007AB5;}
	.st9{fill:#FFEC00;}
	.st10{fill:#262626;}
	.st11{fill:#FD3832;}
	.st12{fill:#696969;}
	.st13{fill:#C4C4C4;}
	.st14{fill-rule:evenodd;clip-rule:evenodd;fill:#1E4FAD;}
	.st15{fill-rule:evenodd;clip-rule:evenodd;fill:#1BA5D4;}
	.st16{fill:url(#SVGID_2_);}
	.st17{fill:url(#SVGID_3_);}
	.st18{fill:url(#SVGID_4_);}
	.st19{fill-rule:evenodd;clip-rule:evenodd;fill:#E02A2F;}
	.st20{fill-rule:evenodd;clip-rule:evenodd;fill:#0B8F21;}
	.st21{fill-rule:evenodd;clip-rule:evenodd;fill:#FD3832;}
	.st22{fill-rule:evenodd;clip-rule:evenodd;}
	.st23{fill-rule:evenodd;clip-rule:evenodd;fill:#696969;}
	.st24{fill-rule:evenodd;clip-rule:evenodd;fill:#C4C4C4;}
	.st25{fill:#3D3D3D;}
</style>
<g>
	<g>
		<circle class="st0" cx="32.8" cy="28.3" r="12.4"/>
		<path class="st1" d="M34.4,23.7c0.4,0,0.9,0,1.3,0c0.1,0,0.1,0,0.2,0v-2.3c-0.2,0-0.5-0.1-0.7-0.1c-0.5,0-0.9,0-1.4,0
			c-0.7,0-1.4,0.2-2,0.6c-0.7,0.5-1,1.2-1.2,2c-0.1,0.3-0.1,0.7-0.1,1c0,0.5,0,1,0,1.6v0.2h-2.2v2.6h2.2v6.6h2.7v-6.6h2.2
			c0.1-0.9,0.2-1.7,0.3-2.6c-0.2,0-0.3,0-0.5,0c-0.6,0-2.1,0-2.1,0s0-1.3,0-1.9C33.4,24,33.8,23.8,34.4,23.7z"/>
	</g>
	<g>
		<circle class="st2" cx="60.6" cy="28.3" r="12.4"/>
		<path class="st1" d="M58.4,32c-1.5-0.1-2.5-1.1-2.7-2c0.4,0.1,0.8,0.1,1.2,0c0,0,0,0,0,0c-0.8-0.2-1.4-0.6-1.9-1.3
			c-0.3-0.5-0.4-1-0.4-1.5c0.4,0.2,0.8,0.3,1.3,0.4c-0.6-0.4-1-1-1.2-1.8c-0.2-0.7-0.1-1.4,0.3-2.1c1.6,1.9,3.6,2.9,6,3
			c0-0.1,0-0.2,0-0.3c-0.1-0.7,0.1-1.3,0.4-1.9c0.5-0.7,1.1-1.2,2-1.3c1-0.2,1.8,0.1,2.5,0.8c0,0,0.1,0.1,0.2,0
			c0.6-0.1,1.2-0.3,1.7-0.6c0,0,0,0,0,0c0,0,0,0,0,0c-0.2,0.7-0.6,1.2-1.2,1.6c0.6-0.1,1.1-0.2,1.6-0.4c0,0,0,0,0,0
			c-0.1,0.1-0.2,0.3-0.3,0.4c-0.3,0.4-0.7,0.7-1.1,1c0,0,0,0,0,0.1c0,0.4,0,0.9-0.1,1.3c-0.1,0.9-0.4,1.8-0.7,2.6
			c-0.4,0.8-0.9,1.6-1.6,2.3c-1.1,1.1-2.4,1.9-4,2.2c-0.5,0.1-1.1,0.2-1.6,0.2c-1.7,0-3.2-0.4-4.7-1.2c0,0,0,0-0.1,0
			c1,0.1,2,0,2.9-0.4C57.5,32.6,57.9,32.3,58.4,32z"/>
	</g>
	<g>
		<linearGradient id="SVGID_1_" gradientUnits="userSpaceOnUse" x1="100.4757" y1="13.4787" x2="80.6828" y2="37.8593">
			<stop  offset="1.075300e-002" style="stop-color:#3542E0"/>
			<stop  offset="0.1748" style="stop-color:#3841DF"/>
			<stop  offset="0.2744" style="stop-color:#403FDA"/>
			<stop  offset="0.357" style="stop-color:#4E3CD2"/>
			<stop  offset="0.4301" style="stop-color:#6337C7"/>
			<stop  offset="0.4971" style="stop-color:#7D31B9"/>
			<stop  offset="0.5595" style="stop-color:#9E2AA8"/>
			<stop  offset="0.6173" style="stop-color:#C32193"/>
			<stop  offset="0.6236" style="stop-color:#C82091"/>
			<stop  offset="0.7612" style="stop-color:#F62B37"/>
			<stop  offset="1" style="stop-color:#FFC658"/>
		</linearGradient>
		<circle class="st3" cx="88.4" cy="28.3" r="12.4"/>
		<path class="st4" d="M95,25.1c-0.1-0.9-0.4-1.6-1.1-2.2c-0.7-0.6-1.5-0.9-2.4-1c-1.5-0.1-5.2-0.1-6.5,0.1
			c-1.5,0.2-2.4,1.1-2.8,2.5c-0.3,1.1-0.3,6.2-0.1,7.4c0.2,1.5,1.1,2.5,2.6,2.9c1,0.3,6.1,0.2,7.2,0c1.5-0.2,2.5-1.1,2.9-2.6
			C95.2,31,95.1,26.1,95,25.1z M93.8,31.6c-0.2,1.1-0.9,1.9-2.1,2c-1.1,0.1-5.8,0.2-6.8-0.1c-0.9-0.3-1.5-0.9-1.6-1.8
			c-0.1-0.9-0.2-5.4,0-6.6c0.2-1.1,0.9-1.8,2.1-2c1.2-0.1,5.3-0.1,6.4,0c1.1,0.2,1.8,0.9,2,2.1C93.9,26.3,94,30.5,93.8,31.6z
			 M88.5,25c-1.9,0-3.4,1.5-3.4,3.4c0,1.9,1.5,3.4,3.4,3.4c1.9,0,3.4-1.5,3.4-3.4C91.9,26.5,90.4,25,88.5,25z M88.5,30.5
			c-1.2,0-2.2-1-2.2-2.2c0-1.2,1-2.2,2.2-2.2c1.2,0,2.2,1,2.2,2.2C90.7,29.6,89.7,30.5,88.5,30.5z M92.8,24.9c0,0.4-0.4,0.8-0.8,0.8
			c-0.4,0-0.8-0.4-0.8-0.8c0-0.4,0.4-0.8,0.8-0.8C92.5,24.1,92.8,24.4,92.8,24.9z"/>
		<path class="st4" d="M95,25.1c-0.1-0.9-0.4-1.6-1.1-2.2c-0.7-0.6-1.5-0.9-2.4-1c-1.5-0.1-5.2-0.1-6.5,0.1
			c-1.5,0.2-2.4,1.1-2.8,2.5c-0.3,1.1-0.3,6.2-0.1,7.4c0.2,1.5,1.1,2.5,2.6,2.9c1,0.3,6.1,0.2,7.2,0c1.5-0.2,2.5-1.1,2.9-2.6
			C95.2,31,95.1,26.1,95,25.1z M93.8,31.6c-0.2,1.1-0.9,1.9-2.1,2c-1.1,0.1-5.8,0.2-6.8-0.1c-0.9-0.3-1.5-0.9-1.6-1.8
			c-0.1-0.9-0.2-5.4,0-6.6c0.2-1.1,0.9-1.8,2.1-2c1.2-0.1,5.3-0.1,6.4,0c1.1,0.2,1.8,0.9,2,2.1C93.9,26.3,94,30.5,93.8,31.6z
			 M88.5,25c-1.9,0-3.4,1.5-3.4,3.4c0,1.9,1.5,3.4,3.4,3.4c1.9,0,3.4-1.5,3.4-3.4C91.9,26.5,90.4,25,88.5,25z M88.5,30.5
			c-1.2,0-2.2-1-2.2-2.2c0-1.2,1-2.2,2.2-2.2c1.2,0,2.2,1,2.2,2.2C90.7,29.6,89.7,30.5,88.5,30.5z M92.8,24.9c0,0.4-0.4,0.8-0.8,0.8
			c-0.4,0-0.8-0.4-0.8-0.8c0-0.4,0.4-0.8,0.8-0.8C92.5,24.1,92.8,24.4,92.8,24.9z"/>
	</g>
	<g>
		<circle class="st5" cx="116.2" cy="28.6" r="12.4"/>
		<path class="st1" d="M115.3,31.4c0,0,0,0.1,0,0.1c-0.5,2-0.6,2.5-1.1,3.4c-0.3,0.5-0.5,0.9-0.9,1.3c0,0-0.1,0.1-0.1,0.1
			c-0.1,0-0.1-0.1-0.1-0.1c-0.1-0.6-0.1-1.2-0.1-1.9c0-0.8,0.1-1.1,1.2-5.5c0-0.1,0-0.1,0-0.2c-0.3-0.7-0.3-1.4-0.1-2.1
			c0.5-1.5,2.2-1.6,2.5-0.4c0.2,0.8-0.3,1.8-0.7,3.3c-0.3,1.2,1.1,2.1,2.4,1.2c1.1-0.8,1.6-2.8,1.5-4.2c-0.2-2.8-3.2-3.4-5.2-2.5
			c-2.2,1-2.7,3.8-1.7,5.1c0.1,0.2,0.2,0.3,0.2,0.4c-0.1,0.3-0.1,0.5-0.2,0.8c-0.1,0.2-0.2,0.3-0.4,0.2c-0.4-0.2-0.7-0.4-0.9-0.7
			c-0.9-1.1-1.1-3.2,0-4.9c1.3-2,3.6-2.8,5.7-2.5c2.5,0.3,4.2,2,4.5,4c0.1,0.9,0,3.1-1.2,4.7c-1.4,1.8-3.8,1.9-4.9,0.8
			C115.5,31.6,115.4,31.5,115.3,31.4z"/>
	</g>
	<g>
		<circle class="st6" cx="144" cy="28.6" r="12.4"/>
		<path class="st1" d="M137.5,35.1c0.1-0.3,0.1-0.6,0.2-0.8c0.2-0.8,0.5-1.6,0.7-2.5c0-0.1,0-0.3,0-0.4c-2.1-4,0.1-8.8,4.4-9.8
			c4-0.9,7.6,1.8,8.2,5.3c0.7,3.7-1.8,7.3-5.5,8c-1.5,0.3-2.9,0-4.2-0.6c-0.1-0.1-0.3-0.1-0.4,0C139,34.7,137.8,35.1,137.5,35.1z
			 M139.1,33.6c0.7-0.2,1.3-0.3,1.9-0.5c0.2,0,0.3,0,0.5,0.1c1.2,0.7,2.4,0.9,3.8,0.7c3.1-0.5,5.2-3.4,4.7-6.4
			c-0.5-3.2-3.5-5.3-6.6-4.7c-3.8,0.7-5.8,5-3.9,8.3c0.2,0.4,0.3,0.7,0.1,1.1C139.3,32.5,139.2,33,139.1,33.6z"/>
		<path class="st1" d="M146.1,31.5c-1.3,0-3.4-1.1-4.9-3.6c-0.5-0.9-0.4-1.9,0.3-2.6c0.3-0.2,0.6-0.2,0.9-0.1c0.1,0,0.1,0.1,0.2,0.2
			c0.2,0.4,0.4,0.9,0.5,1.3c0.1,0.2-0.1,0.5-0.4,0.9c-0.1,0.1-0.1,0.2,0,0.4c0.6,0.9,1.3,1.6,2.4,2c0.2,0.1,0.3,0,0.4-0.1
			c0.5-0.7,0.6-0.9,0.9-0.7c1.4,0.7,1.5,0.7,1.5,0.8C147.8,31.1,146.7,31.5,146.1,31.5z"/>
	</g>
	<g>
		<circle class="st7" cx="171.8" cy="28.7" r="12.4"/>
		<path class="st4" d="M171.8,21.4c-4,0-7.3,3.3-7.3,7.3c0,4,3.3,7.3,7.3,7.3s7.3-3.3,7.3-7.3C179.1,24.7,175.8,21.4,171.8,21.4z
			 M176.5,24.9c0.7,0.9,1.2,2.1,1.3,3.4c-1.6-0.3-2.9-0.3-4.1-0.1c-0.2-0.3-0.3-0.7-0.5-1C174.6,26.7,175.7,25.9,176.5,24.9z
			 M175.6,24c-0.8,0.9-1.8,1.6-3,2.1c-0.1-0.2-0.3-0.4-0.4-0.6c-0.7-1.2-1.4-2.1-1.9-2.6c0.5-0.1,0.9-0.2,1.4-0.2
			C173.2,22.7,174.6,23.2,175.6,24z M169.1,23.3c0.5,0.5,1.4,1.6,2.3,3.2c-2.1,0.6-4.3,0.7-5.4,0.7
			C166.4,25.5,167.6,24.1,169.1,23.3z M165.8,28.7c0-0.1,0-0.1,0-0.2c0.2,0,0.3,0,0.5,0c0.9,0,2.2-0.1,3.5-0.3
			c0.8-0.1,1.5-0.3,2.1-0.5c0.1,0.3,0.3,0.6,0.4,0.9c-1.2,0.4-2.2,1-2.9,1.6c-1.1,0.9-1.8,1.8-2.2,2.5
			C166.3,31.6,165.8,30.2,165.8,28.7z M168.2,33.5c0.4-0.6,1-1.5,2.1-2.4c0.8-0.6,1.7-1.1,2.6-1.4c0.5,1.3,0.9,2.8,1.1,4.5
			c-0.7,0.3-1.4,0.4-2.2,0.4C170.5,34.7,169.2,34.2,168.2,33.5z M175.2,33.6c-0.2-1.5-0.6-2.9-1-4.2c1.1-0.2,2.3-0.1,3.6,0.2
			C177.5,31.3,176.5,32.7,175.2,33.6z"/>
	</g>
	<g>
		<circle class="st8" cx="227.4" cy="28.7" r="12.4"/>
		<path class="st4" d="M222.1,26.1h2.5v8.1h-2.5V26.1z M223.3,22.1c0.8,0,1.5,0.7,1.5,1.5c0,0.8-0.7,1.5-1.5,1.5
			c-0.8,0-1.5-0.7-1.5-1.5C221.9,22.7,222.5,22.1,223.3,22.1"/>
		<path class="st4" d="M226.2,26.1h2.4v1.1h0c0.3-0.6,1.2-1.3,2.4-1.3c2.5,0,3,1.7,3,3.8v4.4h-2.5v-3.9c0-0.9,0-2.1-1.3-2.1
			c-1.3,0-1.5,1-1.5,2.1v4h-2.5V26.1z"/>
	</g>
	<g>
		<circle class="st9" cx="255.2" cy="28.7" r="12.4"/>
		<path class="st10" d="M255.2,22.4c1.8,0,3.3,1.5,3.3,3.3c0,0.7,0,1.4,0,2c0.1,0,0.2,0,0.3,0c0.1,0,0.3,0,0.4-0.1
			c0.2-0.1,0.4-0.2,0.5-0.2c0.1,0,0.3,0.1,0.4,0.2c0.3,0.3,0,0.6-0.5,0.7c-0.4,0.2-1.1,0.3-1.1,0.9c0.2,0.7,0.6,1.4,1.4,2
			c0.7,0.5,1.2,0.6,1.4,0.6c0,0,0.1,0,0.1,0c0,0,0.1,0,0.1,0c0,0.1,0.1,0.5-0.7,0.7c-0.8,0.2-1,0.1-1.1,0.5
			c-0.2,0.4-0.1,0.6-0.3,0.6c-0.1,0-0.7-0.1-1.3-0.1c-0.2,0-0.5,0-0.6,0.1c-0.5,0.2-1.3,1.2-2.4,1.2c-1.2-0.1-1.9-1-2.4-1.2
			c-0.2-0.1-0.4-0.1-0.6-0.1c-0.5,0-1.1,0.1-1.3,0.1c-0.2,0-0.1-0.2-0.3-0.6c-0.2-0.4-0.3-0.3-1.1-0.5c-0.8-0.2-0.7-0.6-0.7-0.7
			c0,0,0,0,0.1,0c0,0,0.1,0,0.1,0c0.2,0,0.7,0,1.4-0.6c0.8-0.6,1.3-1.4,1.4-2c0-0.5-0.7-0.7-1.1-0.9c-0.5-0.2-0.8-0.4-0.5-0.7
			c0.1-0.1,0.3-0.2,0.4-0.2c0.2,0,0.3,0.1,0.5,0.2c0.1,0.1,0.3,0.1,0.4,0.1c0.1,0,0.3,0,0.3,0c0-0.6,0-1.3,0-2
			c0-1.8,1.5-3.3,3.3-3.3H255.2 M255.2,21.9h-0.1c-2.1,0-3.8,1.7-3.8,3.8v1.5c0,0,0,0,0,0c-0.2-0.1-0.5-0.2-0.7-0.2
			c-0.3,0-0.5,0.1-0.7,0.3c-0.3,0.3-0.3,0.6-0.2,0.7c0.1,0.3,0.4,0.6,0.9,0.8c0.1,0,0.1,0,0.2,0.1c0.2,0.1,0.6,0.2,0.6,0.3
			c-0.1,0.4-0.4,1.1-1.2,1.7c-0.6,0.5-1,0.5-1.1,0.5l-0.1,0l-0.1,0c-0.4,0-0.5,0.3-0.5,0.4c-0.1,0.5,0.1,1.1,1,1.3
			c0.3,0.1,0.5,0.1,0.6,0.1c0.1,0,0.1,0,0.2,0c0,0,0,0,0,0c0,0.1,0.1,0.2,0.1,0.3c0,0.2,0.2,0.6,0.7,0.6c0.1,0,0.2,0,0.3,0
			c0.2,0,0.6-0.1,0.9-0.1c0.3,0,0.4,0,0.4,0.1c0.1,0,0.3,0.2,0.4,0.3c0.5,0.4,1.2,0.9,2.2,1l0,0l0,0c1,0,1.7-0.6,2.2-1
			c0.2-0.1,0.3-0.3,0.4-0.3c0,0,0.1-0.1,0.4-0.1c0.3,0,0.7,0,0.9,0.1c0.2,0,0.3,0,0.3,0c0.5,0,0.6-0.4,0.7-0.6c0-0.1,0-0.2,0.1-0.3
			c0,0,0,0,0,0c0,0,0.1,0,0.2,0c0.1,0,0.3-0.1,0.6-0.1c1-0.2,1.2-0.8,1-1.3c0-0.1-0.1-0.4-0.5-0.4l-0.1,0l-0.1,0
			c-0.1,0-0.5,0-1.1-0.5c-0.8-0.6-1.1-1.2-1.2-1.7c0.1-0.1,0.4-0.3,0.6-0.3c0.1,0,0.1,0,0.2-0.1c0.5-0.2,0.8-0.5,0.9-0.8
			c0-0.1,0-0.4-0.2-0.7c-0.2-0.2-0.5-0.3-0.7-0.3c-0.3,0-0.5,0.1-0.7,0.2c0,0,0,0,0,0v-1.5C259,23.6,257.3,21.9,255.2,21.9
			L255.2,21.9z"/>
		<path class="st4" d="M255.2,35c1.2-0.1,1.9-1,2.4-1.2c0.5-0.2,1.7,0,1.9,0c0.2,0,0.1-0.2,0.3-0.6c0.2-0.4,0.3-0.3,1.1-0.5
			c0.8-0.2,0.7-0.6,0.7-0.7c0-0.1-0.5,0.2-1.6-0.6c-0.8-0.6-1.3-1.4-1.4-2c0-0.5,0.7-0.7,1.1-0.9c0.5-0.2,0.8-0.4,0.5-0.7
			c-0.3-0.3-0.6-0.2-0.9,0c-0.3,0.1-0.6,0.1-0.7,0c0-0.6,0-1.3,0-2c0-1.8-1.5-3.3-3.3-3.3h-0.1c-1.8,0-3.3,1.5-3.3,3.3
			c0,0.7,0,1.4,0,2c-0.1,0-0.4,0.1-0.7,0c-0.3-0.2-0.6-0.3-0.9,0c-0.3,0.3,0,0.6,0.5,0.7c0.4,0.2,1.1,0.3,1.1,0.9
			c-0.2,0.7-0.6,1.4-1.4,2c-1.1,0.8-1.5,0.5-1.6,0.6c0,0.1-0.1,0.5,0.7,0.7c0.8,0.2,1,0.1,1.1,0.5c0.2,0.4,0.1,0.6,0.3,0.6
			c0.2,0,1.4-0.2,1.9,0C253.2,34,254,34.9,255.2,35z"/>
	</g>
	<g>
		<circle class="st11" cx="199.6" cy="28.6" r="12.4"/>
		<path class="st1" d="M194.4,32.9c-0.5-0.2-0.8-0.5-1-1c-0.4-1.2-0.6-6.2,0.3-7.1c0.3-0.3,0.7-0.5,1.1-0.6c2.2-0.2,9.2-0.2,10,0.1
			c0.5,0.2,0.8,0.5,1,0.9c0.5,1.2,0.5,5.7-0.1,6.9c-0.1,0.3-0.4,0.5-0.7,0.7C204.1,33.2,195.5,33.2,194.4,32.9z M198,30.5
			c1.3-0.7,2.7-1.4,4-2.1c-1.4-0.7-2.7-1.4-4-2.1C198,27.7,198,29.1,198,30.5z"/>
	</g>
</g>
<g>
	<g>
		<circle cx="32.8" cy="59.5" r="12.4"/>
		<path class="st1" d="M34.4,54.9c0.4,0,0.9,0,1.3,0c0.1,0,0.1,0,0.2,0v-2.3c-0.2,0-0.5-0.1-0.7-0.1c-0.5,0-0.9,0-1.4,0
			c-0.7,0-1.4,0.2-2,0.6c-0.7,0.5-1,1.2-1.2,2c-0.1,0.3-0.1,0.7-0.1,1c0,0.5,0,1,0,1.6v0.2h-2.2v2.6h2.2V67h2.7v-6.6h2.2
			c0.1-0.9,0.2-1.7,0.3-2.6c-0.2,0-0.3,0-0.5,0c-0.6,0-2.1,0-2.1,0s0-1.3,0-1.9C33.4,55.2,33.8,55,34.4,54.9z"/>
	</g>
	<g>
		<circle cx="60.6" cy="59.5" r="12.4"/>
		<path class="st1" d="M58.4,63.2c-1.5-0.1-2.5-1.1-2.7-2c0.4,0.1,0.8,0.1,1.2,0c0,0,0,0,0,0c-0.8-0.2-1.4-0.6-1.9-1.3
			c-0.3-0.5-0.4-1-0.4-1.5c0.4,0.2,0.8,0.3,1.3,0.4c-0.6-0.4-1-1-1.2-1.8c-0.2-0.7-0.1-1.4,0.3-2.1c1.6,1.9,3.6,2.9,6,3
			c0-0.1,0-0.2,0-0.3c-0.1-0.7,0.1-1.3,0.4-1.9c0.5-0.7,1.1-1.2,2-1.3c1-0.2,1.8,0.1,2.5,0.8c0,0,0.1,0.1,0.2,0
			c0.6-0.1,1.2-0.3,1.7-0.7c0,0,0,0,0,0c0,0,0,0,0,0c-0.2,0.7-0.6,1.2-1.2,1.6c0.6-0.1,1.1-0.2,1.6-0.4c0,0,0,0,0,0
			c-0.1,0.1-0.2,0.3-0.3,0.4c-0.3,0.4-0.7,0.7-1.1,1c0,0,0,0,0,0.1c0,0.4,0,0.9-0.1,1.3c-0.1,0.9-0.4,1.8-0.7,2.6
			c-0.4,0.8-0.9,1.6-1.6,2.3c-1.1,1.1-2.4,1.9-4,2.2c-0.5,0.1-1.1,0.2-1.6,0.2c-1.7,0-3.2-0.4-4.7-1.2c0,0,0,0-0.1,0
			c1,0.1,2,0,2.9-0.4C57.5,63.8,57.9,63.5,58.4,63.2z"/>
	</g>
	<g>
		<circle cx="88.4" cy="59.5" r="12.4"/>
		<path class="st4" d="M95,56.3c-0.1-0.9-0.4-1.6-1.1-2.2c-0.7-0.6-1.5-0.9-2.4-1c-1.5-0.1-5.2-0.1-6.5,0.1
			c-1.5,0.2-2.4,1.1-2.8,2.5c-0.3,1.1-0.3,6.2-0.1,7.4c0.2,1.5,1.1,2.5,2.6,2.9c1,0.3,6.1,0.2,7.2,0c1.5-0.2,2.5-1.1,2.9-2.6
			C95.2,62.2,95.1,57.3,95,56.3z M93.8,62.8c-0.2,1.1-0.9,1.9-2.1,2c-1.1,0.1-5.8,0.2-6.8-0.1c-0.9-0.3-1.5-0.9-1.6-1.8
			c-0.1-0.9-0.2-5.4,0-6.6c0.2-1.1,0.9-1.8,2.1-2c1.2-0.1,5.3-0.1,6.4,0c1.1,0.2,1.8,0.9,2,2.1C93.9,57.5,94,61.7,93.8,62.8z
			 M88.5,56.2c-1.9,0-3.4,1.5-3.4,3.4s1.5,3.4,3.4,3.4c1.9,0,3.4-1.5,3.4-3.4C91.9,57.7,90.4,56.2,88.5,56.2z M88.5,61.7
			c-1.2,0-2.2-1-2.2-2.2c0-1.2,1-2.2,2.2-2.2c1.2,0,2.2,1,2.2,2.2C90.7,60.8,89.7,61.7,88.5,61.7z M92.8,56.1c0,0.4-0.4,0.8-0.8,0.8
			c-0.4,0-0.8-0.4-0.8-0.8c0-0.4,0.4-0.8,0.8-0.8C92.5,55.3,92.8,55.6,92.8,56.1z"/>
		<path class="st4" d="M95,56.3c-0.1-0.9-0.4-1.6-1.1-2.2c-0.7-0.6-1.5-0.9-2.4-1c-1.5-0.1-5.2-0.1-6.5,0.1
			c-1.5,0.2-2.4,1.1-2.8,2.5c-0.3,1.1-0.3,6.2-0.1,7.4c0.2,1.5,1.1,2.5,2.6,2.9c1,0.3,6.1,0.2,7.2,0c1.5-0.2,2.5-1.1,2.9-2.6
			C95.2,62.2,95.1,57.3,95,56.3z M93.8,62.8c-0.2,1.1-0.9,1.9-2.1,2c-1.1,0.1-5.8,0.2-6.8-0.1c-0.9-0.3-1.5-0.9-1.6-1.8
			c-0.1-0.9-0.2-5.4,0-6.6c0.2-1.1,0.9-1.8,2.1-2c1.2-0.1,5.3-0.1,6.4,0c1.1,0.2,1.8,0.9,2,2.1C93.9,57.5,94,61.7,93.8,62.8z
			 M88.5,56.2c-1.9,0-3.4,1.5-3.4,3.4s1.5,3.4,3.4,3.4c1.9,0,3.4-1.5,3.4-3.4C91.9,57.7,90.4,56.2,88.5,56.2z M88.5,61.7
			c-1.2,0-2.2-1-2.2-2.2c0-1.2,1-2.2,2.2-2.2c1.2,0,2.2,1,2.2,2.2C90.7,60.8,89.7,61.7,88.5,61.7z M92.8,56.1c0,0.4-0.4,0.8-0.8,0.8
			c-0.4,0-0.8-0.4-0.8-0.8c0-0.4,0.4-0.8,0.8-0.8C92.5,55.3,92.8,55.6,92.8,56.1z"/>
	</g>
	<g>
		<circle cx="116.2" cy="59.8" r="12.4"/>
		<path class="st1" d="M115.3,62.6c0,0,0,0.1,0,0.1c-0.5,2-0.6,2.5-1.1,3.4c-0.3,0.5-0.5,0.9-0.9,1.3c0,0-0.1,0.1-0.1,0.1
			c-0.1,0-0.1-0.1-0.1-0.2c-0.1-0.6-0.1-1.2-0.1-1.9c0-0.8,0.1-1.1,1.2-5.5c0-0.1,0-0.1,0-0.2c-0.3-0.7-0.3-1.4-0.1-2.1
			c0.5-1.5,2.2-1.6,2.5-0.4c0.2,0.8-0.3,1.8-0.7,3.3c-0.3,1.2,1.1,2.1,2.4,1.2c1.1-0.8,1.6-2.8,1.5-4.2c-0.2-2.8-3.2-3.4-5.2-2.5
			c-2.2,1-2.7,3.8-1.7,5.1c0.1,0.2,0.2,0.3,0.2,0.4c-0.1,0.3-0.1,0.5-0.2,0.8c-0.1,0.2-0.2,0.3-0.4,0.2c-0.4-0.2-0.7-0.4-0.9-0.7
			c-0.9-1.1-1.1-3.2,0-4.9c1.3-2,3.6-2.8,5.7-2.5c2.5,0.3,4.2,2,4.5,4c0.1,0.9,0,3.1-1.2,4.7c-1.4,1.8-3.8,1.9-4.9,0.8
			C115.5,62.8,115.4,62.7,115.3,62.6z"/>
	</g>
	<g>
		<circle cx="144" cy="59.8" r="12.4"/>
		<path class="st1" d="M137.5,66.3c0.1-0.3,0.1-0.6,0.2-0.8c0.2-0.8,0.5-1.6,0.7-2.5c0-0.1,0-0.3,0-0.4c-2.1-4,0.1-8.8,4.4-9.8
			c4-0.9,7.6,1.8,8.2,5.3c0.7,3.7-1.8,7.3-5.5,8c-1.5,0.3-2.9,0-4.2-0.6c-0.1-0.1-0.3-0.1-0.4,0C139,65.9,137.8,66.3,137.5,66.3z
			 M139.1,64.8c0.7-0.2,1.3-0.3,1.9-0.5c0.2,0,0.3,0,0.5,0.1c1.2,0.7,2.4,0.9,3.8,0.7c3.1-0.5,5.2-3.4,4.7-6.4
			c-0.5-3.2-3.5-5.3-6.6-4.7c-3.8,0.7-5.8,5-3.9,8.3c0.2,0.4,0.3,0.7,0.1,1.1C139.3,63.7,139.2,64.2,139.1,64.8z"/>
		<path class="st1" d="M146.1,62.7c-1.3,0-3.4-1.1-4.9-3.6c-0.5-0.9-0.4-1.9,0.3-2.6c0.3-0.2,0.6-0.2,0.9-0.1c0.1,0,0.1,0.1,0.2,0.2
			c0.2,0.4,0.4,0.9,0.5,1.3c0.1,0.2-0.1,0.5-0.4,0.9c-0.1,0.1-0.1,0.2,0,0.4c0.6,0.9,1.3,1.6,2.4,2c0.2,0.1,0.3,0,0.4-0.1
			c0.5-0.7,0.6-0.9,0.9-0.7c1.4,0.7,1.5,0.7,1.5,0.8C147.8,62.3,146.7,62.7,146.1,62.7z"/>
	</g>
	<g>
		<circle cx="171.8" cy="59.9" r="12.4"/>
		<path class="st4" d="M171.8,52.6c-4,0-7.3,3.3-7.3,7.3c0,4,3.3,7.3,7.3,7.3s7.3-3.3,7.3-7.3C179.1,55.9,175.8,52.6,171.8,52.6z
			 M176.5,56.1c0.7,0.9,1.2,2.1,1.3,3.4c-1.6-0.3-2.9-0.3-4.1-0.1c-0.2-0.3-0.3-0.7-0.5-1C174.6,57.9,175.7,57.1,176.5,56.1z
			 M175.6,55.2c-0.8,0.9-1.8,1.6-3,2.1c-0.1-0.2-0.3-0.4-0.4-0.6c-0.7-1.2-1.4-2.1-1.9-2.6c0.5-0.1,0.9-0.2,1.4-0.2
			C173.2,53.9,174.6,54.4,175.6,55.2z M169.1,54.5c0.5,0.5,1.4,1.6,2.3,3.2c-2.1,0.6-4.3,0.7-5.4,0.7
			C166.4,56.7,167.6,55.3,169.1,54.5z M165.8,59.9c0-0.1,0-0.1,0-0.2c0.2,0,0.3,0,0.5,0c0.9,0,2.2-0.1,3.5-0.3
			c0.8-0.1,1.5-0.3,2.1-0.5c0.1,0.3,0.3,0.6,0.4,0.9c-1.2,0.4-2.2,1-2.9,1.6c-1.1,0.9-1.8,1.8-2.2,2.5
			C166.3,62.8,165.8,61.4,165.8,59.9z M168.2,64.7c0.4-0.6,1-1.5,2.1-2.4c0.8-0.6,1.7-1.1,2.6-1.4c0.5,1.3,0.9,2.8,1.1,4.5
			c-0.7,0.3-1.4,0.4-2.2,0.4C170.5,65.9,169.2,65.4,168.2,64.7z M175.2,64.8c-0.2-1.5-0.6-2.9-1-4.2c1.1-0.2,2.3-0.1,3.6,0.2
			C177.5,62.5,176.5,63.9,175.2,64.8z"/>
	</g>
	<g>
		<circle cx="227.4" cy="59.9" r="12.4"/>
		<path class="st4" d="M222.1,57.3h2.5v8.1h-2.5V57.3z M223.3,53.3c0.8,0,1.5,0.7,1.5,1.5c0,0.8-0.7,1.5-1.5,1.5
			c-0.8,0-1.5-0.7-1.5-1.5C221.9,53.9,222.5,53.3,223.3,53.3"/>
		<path class="st4" d="M226.2,57.3h2.4v1.1h0c0.3-0.6,1.2-1.3,2.4-1.3c2.5,0,3,1.7,3,3.8v4.4h-2.5v-3.9c0-0.9,0-2.1-1.3-2.1
			c-1.3,0-1.5,1-1.5,2.1v4h-2.5V57.3z"/>
	</g>
	<g>
		<circle cx="255.2" cy="59.9" r="12.4"/>
		<path class="st10" d="M255.2,53.6c1.8,0,3.3,1.5,3.3,3.3c0,0.7,0,1.4,0,2c0.1,0,0.2,0,0.3,0c0.1,0,0.3,0,0.4-0.1
			c0.2-0.1,0.4-0.2,0.5-0.2c0.1,0,0.3,0.1,0.4,0.2c0.3,0.3,0,0.6-0.5,0.7c-0.4,0.2-1.1,0.3-1.1,0.9c0.2,0.7,0.6,1.4,1.4,2
			c0.7,0.5,1.2,0.6,1.4,0.6c0,0,0.1,0,0.1,0c0,0,0.1,0,0.1,0c0,0.1,0.1,0.5-0.7,0.7c-0.8,0.2-1,0.1-1.1,0.5
			c-0.2,0.4-0.1,0.6-0.3,0.6c-0.1,0-0.7-0.1-1.3-0.1c-0.2,0-0.5,0-0.6,0.1c-0.5,0.2-1.3,1.2-2.4,1.2c-1.2-0.1-1.9-1-2.4-1.2
			c-0.2-0.1-0.4-0.1-0.6-0.1c-0.5,0-1.1,0.1-1.3,0.1c-0.2,0-0.1-0.2-0.3-0.6c-0.2-0.4-0.3-0.3-1.1-0.5c-0.8-0.2-0.7-0.6-0.7-0.7
			c0,0,0,0,0.1,0c0,0,0.1,0,0.1,0c0.2,0,0.7,0,1.4-0.6c0.8-0.6,1.3-1.4,1.4-2c0-0.5-0.7-0.7-1.1-0.9c-0.5-0.2-0.8-0.4-0.5-0.7
			c0.1-0.1,0.3-0.2,0.4-0.2c0.2,0,0.3,0.1,0.5,0.2c0.1,0.1,0.3,0.1,0.4,0.1c0.1,0,0.3,0,0.3,0c0-0.6,0-1.3,0-2
			c0-1.8,1.5-3.3,3.3-3.3H255.2 M255.2,53.1h-0.1c-2.1,0-3.8,1.7-3.8,3.8v1.5c0,0,0,0,0,0c-0.2-0.1-0.5-0.2-0.7-0.2
			c-0.3,0-0.5,0.1-0.7,0.3c-0.3,0.3-0.3,0.6-0.2,0.7c0.1,0.3,0.4,0.6,0.9,0.8c0.1,0,0.1,0,0.2,0.1c0.2,0.1,0.6,0.2,0.6,0.3
			c-0.1,0.4-0.4,1.1-1.2,1.7c-0.6,0.5-1,0.5-1.1,0.5l-0.1,0l-0.1,0c-0.4,0-0.5,0.3-0.5,0.4c-0.1,0.5,0.1,1.1,1,1.3
			c0.3,0.1,0.5,0.1,0.6,0.1c0.1,0,0.1,0,0.2,0c0,0,0,0,0,0c0,0.1,0.1,0.2,0.1,0.3c0,0.2,0.2,0.6,0.7,0.6c0.1,0,0.2,0,0.3,0
			c0.2,0,0.6-0.1,0.9-0.1c0.3,0,0.4,0,0.4,0.1c0.1,0,0.3,0.2,0.4,0.3c0.5,0.4,1.2,0.9,2.2,1l0,0l0,0c1,0,1.7-0.6,2.2-1
			c0.2-0.1,0.3-0.3,0.4-0.3c0,0,0.1-0.1,0.4-0.1c0.3,0,0.7,0,0.9,0.1c0.2,0,0.3,0,0.3,0c0.5,0,0.6-0.4,0.7-0.6c0-0.1,0-0.2,0.1-0.3
			c0,0,0,0,0,0c0,0,0.1,0,0.2,0c0.1,0,0.3-0.1,0.6-0.1c1-0.2,1.2-0.8,1-1.3c0-0.1-0.1-0.4-0.5-0.4l-0.1,0l-0.1,0
			c-0.1,0-0.5,0-1.1-0.5c-0.8-0.6-1.1-1.2-1.2-1.7c0.1-0.1,0.4-0.3,0.6-0.3c0.1,0,0.1,0,0.2-0.1c0.5-0.2,0.8-0.5,0.9-0.8
			c0-0.1,0-0.4-0.2-0.7c-0.2-0.2-0.5-0.3-0.7-0.3c-0.3,0-0.5,0.1-0.7,0.2c0,0,0,0,0,0v-1.5C259,54.8,257.3,53.1,255.2,53.1
			L255.2,53.1z"/>
		<path class="st4" d="M255.2,66.2c1.2-0.1,1.9-1,2.4-1.2c0.5-0.2,1.7,0,1.9,0c0.2,0,0.1-0.2,0.3-0.6c0.2-0.4,0.3-0.3,1.1-0.5
			c0.8-0.2,0.7-0.6,0.7-0.7c0-0.1-0.5,0.2-1.6-0.6c-0.8-0.6-1.3-1.4-1.4-2c0-0.5,0.7-0.7,1.1-0.9c0.5-0.2,0.8-0.4,0.5-0.7
			c-0.3-0.3-0.6-0.2-0.9,0c-0.3,0.1-0.6,0.1-0.7,0c0-0.6,0-1.3,0-2c0-1.8-1.5-3.3-3.3-3.3h-0.1c-1.8,0-3.3,1.5-3.3,3.3
			c0,0.7,0,1.4,0,2c-0.1,0-0.4,0.1-0.7,0c-0.3-0.2-0.6-0.3-0.9,0c-0.3,0.3,0,0.6,0.5,0.7c0.4,0.2,1.1,0.3,1.1,0.9
			c-0.2,0.7-0.6,1.4-1.4,2c-1.1,0.8-1.5,0.5-1.6,0.6c0,0.1-0.1,0.5,0.7,0.7c0.8,0.2,1,0.1,1.1,0.5c0.2,0.4,0.1,0.6,0.3,0.6
			c0.2,0,1.4-0.2,1.9,0C253.2,65.2,254,66.1,255.2,66.2z"/>
	</g>
	<g>
		<circle cx="199.6" cy="59.8" r="12.4"/>
		<path class="st1" d="M194.4,64.1c-0.5-0.2-0.8-0.5-1-1c-0.4-1.2-0.6-6.2,0.3-7.1c0.3-0.3,0.7-0.5,1.1-0.6c2.2-0.2,9.2-0.2,10,0.1
			c0.5,0.2,0.8,0.5,1,0.9c0.5,1.2,0.5,5.7-0.1,6.9c-0.1,0.3-0.4,0.5-0.7,0.7C204.1,64.4,195.5,64.4,194.4,64.1z M198,61.7
			c1.3-0.7,2.7-1.4,4-2.1c-1.4-0.7-2.7-1.4-4-2.1C198,58.9,198,60.3,198,61.7z"/>
	</g>
</g>
<g>
	<g>
		<circle class="st12" cx="32.8" cy="90.7" r="12.4"/>
		<path class="st1" d="M34.4,86.1c0.4,0,0.9,0,1.3,0c0.1,0,0.1,0,0.2,0v-2.3c-0.2,0-0.5-0.1-0.7-0.1c-0.5,0-0.9,0-1.4,0
			c-0.7,0-1.4,0.2-2,0.6c-0.7,0.5-1,1.2-1.2,2c-0.1,0.3-0.1,0.7-0.1,1c0,0.5,0,1,0,1.6V89h-2.2v2.6h2.2v6.6h2.7v-6.6h2.2
			c0.1-0.9,0.2-1.7,0.3-2.6c-0.2,0-0.3,0-0.5,0c-0.6,0-2.1,0-2.1,0s0-1.3,0-1.9C33.4,86.4,33.8,86.2,34.4,86.1z"/>
	</g>
	<g>
		<circle class="st12" cx="60.6" cy="90.7" r="12.4"/>
		<path class="st1" d="M58.4,94.4c-1.5-0.1-2.5-1.1-2.7-2c0.4,0.1,0.8,0.1,1.2,0c0,0,0,0,0,0c-0.8-0.2-1.4-0.6-1.9-1.3
			c-0.3-0.5-0.4-1-0.4-1.5c0.4,0.2,0.8,0.3,1.3,0.4c-0.6-0.4-1-1-1.2-1.8c-0.2-0.7-0.1-1.4,0.3-2.1c1.6,1.9,3.6,2.9,6,3
			c0-0.1,0-0.2,0-0.3c-0.1-0.7,0.1-1.3,0.4-1.9c0.5-0.7,1.1-1.2,2-1.3c1-0.2,1.8,0.1,2.5,0.8c0,0,0.1,0.1,0.2,0
			c0.6-0.1,1.2-0.3,1.7-0.6c0,0,0,0,0,0c0,0,0,0,0,0c-0.2,0.7-0.6,1.2-1.2,1.6c0.6-0.1,1.1-0.2,1.6-0.4c0,0,0,0,0,0
			c-0.1,0.1-0.2,0.3-0.3,0.4c-0.3,0.4-0.7,0.7-1.1,1c0,0,0,0,0,0.1c0,0.4,0,0.9-0.1,1.3c-0.1,0.9-0.4,1.8-0.7,2.6
			c-0.4,0.8-0.9,1.6-1.6,2.3c-1.1,1.1-2.4,1.9-4,2.2c-0.5,0.1-1.1,0.2-1.6,0.2c-1.7,0-3.2-0.4-4.7-1.2c0,0,0,0-0.1,0
			c1,0.1,2,0,2.9-0.4C57.5,95,57.9,94.7,58.4,94.4z"/>
	</g>
	<g>
		<circle class="st12" cx="88.4" cy="90.7" r="12.4"/>
		<path class="st4" d="M95,87.5c-0.1-0.9-0.4-1.6-1.1-2.2c-0.7-0.6-1.5-0.9-2.4-1c-1.5-0.1-5.2-0.1-6.5,0.1
			c-1.5,0.2-2.4,1.1-2.8,2.5c-0.3,1.1-0.3,6.2-0.1,7.4c0.2,1.5,1.1,2.5,2.6,2.9c1,0.3,6.1,0.2,7.2,0c1.5-0.2,2.5-1.1,2.9-2.6
			C95.2,93.4,95.1,88.5,95,87.5z M93.8,94c-0.2,1.1-0.9,1.9-2.1,2c-1.1,0.1-5.8,0.2-6.8-0.1c-0.9-0.3-1.5-0.9-1.6-1.8
			c-0.1-0.9-0.2-5.4,0-6.6c0.2-1.1,0.9-1.8,2.1-2c1.2-0.1,5.3-0.1,6.4,0c1.1,0.2,1.8,0.9,2,2.1C93.9,88.7,94,92.9,93.8,94z
			 M88.5,87.4c-1.9,0-3.4,1.5-3.4,3.4c0,1.9,1.5,3.4,3.4,3.4c1.9,0,3.4-1.5,3.4-3.4C91.9,88.9,90.4,87.4,88.5,87.4z M88.5,92.9
			c-1.2,0-2.2-1-2.2-2.2c0-1.2,1-2.2,2.2-2.2c1.2,0,2.2,1,2.2,2.2C90.7,92,89.7,92.9,88.5,92.9z M92.8,87.3c0,0.4-0.4,0.8-0.8,0.8
			c-0.4,0-0.8-0.4-0.8-0.8c0-0.4,0.4-0.8,0.8-0.8C92.5,86.5,92.8,86.8,92.8,87.3z"/>
		<path class="st4" d="M95,87.5c-0.1-0.9-0.4-1.6-1.1-2.2c-0.7-0.6-1.5-0.9-2.4-1c-1.5-0.1-5.2-0.1-6.5,0.1
			c-1.5,0.2-2.4,1.1-2.8,2.5c-0.3,1.1-0.3,6.2-0.1,7.4c0.2,1.5,1.1,2.5,2.6,2.9c1,0.3,6.1,0.2,7.2,0c1.5-0.2,2.5-1.1,2.9-2.6
			C95.2,93.4,95.1,88.5,95,87.5z M93.8,94c-0.2,1.1-0.9,1.9-2.1,2c-1.1,0.1-5.8,0.2-6.8-0.1c-0.9-0.3-1.5-0.9-1.6-1.8
			c-0.1-0.9-0.2-5.4,0-6.6c0.2-1.1,0.9-1.8,2.1-2c1.2-0.1,5.3-0.1,6.4,0c1.1,0.2,1.8,0.9,2,2.1C93.9,88.7,94,92.9,93.8,94z
			 M88.5,87.4c-1.9,0-3.4,1.5-3.4,3.4c0,1.9,1.5,3.4,3.4,3.4c1.9,0,3.4-1.5,3.4-3.4C91.9,88.9,90.4,87.4,88.5,87.4z M88.5,92.9
			c-1.2,0-2.2-1-2.2-2.2c0-1.2,1-2.2,2.2-2.2c1.2,0,2.2,1,2.2,2.2C90.7,92,89.7,92.9,88.5,92.9z M92.8,87.3c0,0.4-0.4,0.8-0.8,0.8
			c-0.4,0-0.8-0.4-0.8-0.8c0-0.4,0.4-0.8,0.8-0.8C92.5,86.5,92.8,86.8,92.8,87.3z"/>
	</g>
	<g>
		<circle class="st12" cx="116.2" cy="91" r="12.4"/>
		<path class="st1" d="M115.3,93.8c0,0,0,0.1,0,0.1c-0.5,2-0.6,2.5-1.1,3.4c-0.3,0.5-0.5,0.9-0.9,1.3c0,0-0.1,0.1-0.1,0.1
			c-0.1,0-0.1-0.1-0.1-0.2c-0.1-0.6-0.1-1.2-0.1-1.9c0-0.8,0.1-1.1,1.2-5.5c0-0.1,0-0.1,0-0.2c-0.3-0.7-0.3-1.4-0.1-2.1
			c0.5-1.5,2.2-1.6,2.5-0.4c0.2,0.8-0.3,1.8-0.7,3.3c-0.3,1.2,1.1,2.1,2.4,1.2c1.1-0.8,1.6-2.8,1.5-4.2c-0.2-2.8-3.2-3.4-5.2-2.5
			c-2.2,1-2.7,3.8-1.7,5.1c0.1,0.2,0.2,0.3,0.2,0.4c-0.1,0.3-0.1,0.5-0.2,0.8c-0.1,0.2-0.2,0.3-0.4,0.2c-0.4-0.1-0.7-0.4-0.9-0.7
			c-0.9-1.1-1.1-3.2,0-4.9c1.3-2,3.6-2.8,5.7-2.5c2.5,0.3,4.2,2,4.5,4c0.1,0.9,0,3.1-1.2,4.7c-1.4,1.8-3.8,1.9-4.9,0.8
			C115.5,94,115.4,93.9,115.3,93.8z"/>
	</g>
	<g>
		<circle class="st12" cx="144" cy="91" r="12.4"/>
		<path class="st1" d="M137.5,97.5c0.1-0.3,0.1-0.6,0.2-0.8c0.2-0.8,0.5-1.6,0.7-2.5c0-0.1,0-0.3,0-0.4c-2.1-4,0.1-8.8,4.4-9.8
			c4-0.9,7.6,1.8,8.2,5.3c0.7,3.7-1.8,7.3-5.5,8c-1.5,0.3-2.9,0-4.2-0.6c-0.1-0.1-0.3-0.1-0.4,0C139,97.1,137.8,97.5,137.5,97.5z
			 M139.1,96c0.7-0.2,1.3-0.3,1.9-0.5c0.2,0,0.3,0,0.5,0.1c1.2,0.7,2.4,0.9,3.8,0.7c3.1-0.5,5.2-3.4,4.7-6.4
			c-0.5-3.2-3.5-5.3-6.6-4.7c-3.8,0.7-5.8,5-3.9,8.3c0.2,0.4,0.3,0.7,0.1,1.1C139.3,94.9,139.2,95.4,139.1,96z"/>
		<path class="st1" d="M146.1,93.9c-1.3,0-3.4-1.1-4.9-3.6c-0.5-0.9-0.4-1.9,0.3-2.6c0.3-0.2,0.6-0.2,0.9-0.1c0.1,0,0.1,0.1,0.2,0.2
			c0.2,0.4,0.4,0.9,0.5,1.3c0.1,0.2-0.1,0.5-0.4,0.9c-0.1,0.1-0.1,0.2,0,0.4c0.6,0.9,1.3,1.6,2.4,2c0.2,0.1,0.3,0,0.4-0.1
			c0.5-0.7,0.6-0.9,0.9-0.7c1.4,0.7,1.5,0.7,1.5,0.8C147.8,93.5,146.7,93.9,146.1,93.9z"/>
	</g>
	<g>
		<circle class="st12" cx="171.8" cy="91.1" r="12.4"/>
		<path class="st4" d="M171.8,83.8c-4,0-7.3,3.3-7.3,7.3c0,4,3.3,7.3,7.3,7.3s7.3-3.3,7.3-7.3C179.1,87.1,175.8,83.8,171.8,83.8z
			 M176.5,87.3c0.7,0.9,1.2,2.1,1.3,3.4c-1.6-0.3-2.9-0.3-4.1-0.1c-0.2-0.3-0.3-0.7-0.5-1C174.6,89.1,175.7,88.3,176.5,87.3z
			 M175.6,86.4c-0.8,0.9-1.8,1.6-3,2.1c-0.1-0.2-0.3-0.4-0.4-0.6c-0.7-1.2-1.4-2.1-1.9-2.6c0.5-0.1,0.9-0.2,1.4-0.2
			C173.2,85.1,174.6,85.6,175.6,86.4z M169.1,85.7c0.5,0.5,1.4,1.6,2.3,3.2c-2.1,0.6-4.3,0.7-5.4,0.7
			C166.4,87.9,167.6,86.5,169.1,85.7z M165.8,91.1c0-0.1,0-0.1,0-0.2c0.2,0,0.3,0,0.5,0c0.9,0,2.2-0.1,3.5-0.3
			c0.8-0.1,1.5-0.3,2.1-0.5c0.1,0.3,0.3,0.6,0.4,0.9c-1.2,0.4-2.2,1-2.9,1.6c-1.1,0.9-1.8,1.8-2.2,2.5
			C166.3,94,165.8,92.6,165.8,91.1z M168.2,95.9c0.4-0.6,1-1.5,2.1-2.4c0.8-0.6,1.7-1.1,2.6-1.4c0.5,1.3,0.9,2.8,1.1,4.5
			c-0.7,0.3-1.4,0.4-2.2,0.4C170.5,97.1,169.2,96.6,168.2,95.9z M175.2,96c-0.2-1.5-0.6-2.9-1-4.2c1.1-0.2,2.3-0.1,3.6,0.2
			C177.5,93.7,176.5,95.1,175.2,96z"/>
	</g>
	<g>
		<circle class="st12" cx="227.4" cy="91.1" r="12.4"/>
		<path class="st4" d="M222.1,88.5h2.5v8.1h-2.5V88.5z M223.3,84.5c0.8,0,1.5,0.7,1.5,1.5c0,0.8-0.7,1.5-1.5,1.5
			c-0.8,0-1.5-0.7-1.5-1.5C221.9,85.1,222.5,84.5,223.3,84.5"/>
		<path class="st4" d="M226.2,88.5h2.4v1.1h0c0.3-0.6,1.2-1.3,2.4-1.3c2.5,0,3,1.7,3,3.8v4.4h-2.5v-3.9c0-0.9,0-2.1-1.3-2.1
			c-1.3,0-1.5,1-1.5,2.1v4h-2.5V88.5z"/>
	</g>
	<g>
		<circle class="st12" cx="255.2" cy="91.1" r="12.4"/>
		<path class="st10" d="M255.2,84.8c1.8,0,3.3,1.5,3.3,3.3c0,0.7,0,1.4,0,2c0.1,0,0.2,0,0.3,0c0.1,0,0.3,0,0.4-0.1
			c0.2-0.1,0.4-0.2,0.5-0.2c0.1,0,0.3,0.1,0.4,0.2c0.3,0.3,0,0.6-0.5,0.7c-0.4,0.2-1.1,0.3-1.1,0.9c0.2,0.7,0.6,1.4,1.4,2
			c0.7,0.5,1.2,0.6,1.4,0.6c0,0,0.1,0,0.1,0c0,0,0.1,0,0.1,0c0,0.1,0.1,0.5-0.7,0.7c-0.8,0.2-1,0.1-1.1,0.5
			c-0.2,0.4-0.1,0.6-0.3,0.6c-0.1,0-0.7-0.1-1.3-0.1c-0.2,0-0.5,0-0.6,0.1c-0.5,0.2-1.3,1.2-2.4,1.2c-1.2-0.1-1.9-1-2.4-1.2
			c-0.2-0.1-0.4-0.1-0.6-0.1c-0.5,0-1.1,0.1-1.3,0.1c-0.2,0-0.1-0.2-0.3-0.6c-0.2-0.4-0.3-0.3-1.1-0.5c-0.8-0.2-0.7-0.6-0.7-0.7
			c0,0,0,0,0.1,0c0,0,0.1,0,0.1,0c0.2,0,0.7,0,1.4-0.6c0.8-0.6,1.3-1.4,1.4-2c0-0.5-0.7-0.7-1.1-0.9c-0.5-0.2-0.8-0.4-0.5-0.7
			c0.1-0.1,0.3-0.2,0.4-0.2c0.2,0,0.3,0.1,0.5,0.2c0.1,0.1,0.3,0.1,0.4,0.1c0.1,0,0.3,0,0.3,0c0-0.6,0-1.3,0-2
			c0-1.8,1.5-3.3,3.3-3.3H255.2 M255.2,84.3h-0.1c-2.1,0-3.8,1.7-3.8,3.8v1.5c0,0,0,0,0,0c-0.2-0.1-0.5-0.2-0.7-0.2
			c-0.3,0-0.5,0.1-0.7,0.3c-0.3,0.3-0.3,0.6-0.2,0.7c0.1,0.3,0.4,0.6,0.9,0.8c0.1,0,0.1,0,0.2,0.1c0.2,0.1,0.6,0.2,0.6,0.3
			c-0.1,0.4-0.4,1.1-1.2,1.7c-0.6,0.5-1,0.5-1.1,0.5l-0.1,0l-0.1,0c-0.4,0-0.5,0.3-0.5,0.4c-0.1,0.5,0.1,1.1,1,1.3
			c0.3,0.1,0.5,0.1,0.6,0.1c0.1,0,0.1,0,0.2,0c0,0,0,0,0,0c0,0.1,0.1,0.2,0.1,0.3c0,0.2,0.2,0.6,0.7,0.6c0.1,0,0.2,0,0.3,0
			c0.2,0,0.6-0.1,0.9-0.1c0.3,0,0.4,0,0.4,0.1c0.1,0,0.3,0.2,0.4,0.3c0.5,0.4,1.2,0.9,2.2,1l0,0l0,0c1,0,1.7-0.6,2.2-1
			c0.2-0.1,0.3-0.3,0.4-0.3c0,0,0.1-0.1,0.4-0.1c0.3,0,0.7,0,0.9,0.1c0.2,0,0.3,0,0.3,0c0.5,0,0.6-0.4,0.7-0.6c0-0.1,0-0.2,0.1-0.3
			c0,0,0,0,0,0c0,0,0.1,0,0.2,0c0.1,0,0.3-0.1,0.6-0.1c1-0.2,1.2-0.8,1-1.3c0-0.1-0.1-0.4-0.5-0.4l-0.1,0l-0.1,0
			c-0.1,0-0.5,0-1.1-0.5c-0.8-0.6-1.1-1.2-1.2-1.7c0.1-0.1,0.4-0.3,0.6-0.3c0.1,0,0.1,0,0.2-0.1c0.5-0.2,0.8-0.5,0.9-0.8
			c0-0.1,0-0.4-0.2-0.7c-0.2-0.2-0.5-0.3-0.7-0.3c-0.3,0-0.5,0.1-0.7,0.2c0,0,0,0,0,0v-1.5C259,86,257.3,84.3,255.2,84.3L255.2,84.3
			z"/>
		<path class="st4" d="M255.2,97.4c1.2-0.1,1.9-1,2.4-1.2c0.5-0.2,1.7,0,1.9,0c0.2,0,0.1-0.2,0.3-0.6c0.2-0.4,0.3-0.3,1.1-0.5
			c0.8-0.2,0.7-0.6,0.7-0.7c0-0.1-0.5,0.2-1.6-0.6c-0.8-0.6-1.3-1.4-1.4-2c0-0.5,0.7-0.7,1.1-0.9c0.5-0.2,0.8-0.4,0.5-0.7
			c-0.3-0.3-0.6-0.2-0.9,0c-0.3,0.1-0.6,0.1-0.7,0c0-0.6,0-1.3,0-2c0-1.8-1.5-3.3-3.3-3.3h-0.1c-1.8,0-3.3,1.5-3.3,3.3
			c0,0.7,0,1.4,0,2c-0.1,0-0.4,0.1-0.7,0c-0.3-0.2-0.6-0.3-0.9,0c-0.3,0.3,0,0.6,0.5,0.7c0.4,0.2,1.1,0.3,1.1,0.9
			c-0.2,0.7-0.6,1.4-1.4,2c-1.1,0.8-1.5,0.5-1.6,0.6c0,0.1-0.1,0.5,0.7,0.7c0.8,0.2,1,0.1,1.1,0.5c0.2,0.4,0.1,0.6,0.3,0.6
			c0.2,0,1.4-0.2,1.9,0C253.2,96.4,254,97.3,255.2,97.4z"/>
	</g>
	<g>
		<circle class="st12" cx="199.6" cy="91" r="12.4"/>
		<path class="st1" d="M194.4,95.3c-0.5-0.2-0.8-0.5-1-1c-0.4-1.2-0.6-6.2,0.3-7.1c0.3-0.3,0.7-0.5,1.1-0.6c2.2-0.2,9.2-0.2,10,0.1
			c0.5,0.2,0.8,0.5,1,0.9c0.5,1.2,0.5,5.7-0.1,6.9c-0.1,0.3-0.4,0.5-0.7,0.7C204.1,95.6,195.5,95.6,194.4,95.3z M198,92.9
			c1.3-0.7,2.7-1.4,4-2.1c-1.4-0.7-2.7-1.4-4-2.1C198,90.1,198,91.5,198,92.9z"/>
	</g>
</g>
<g>
	<g>
		<circle class="st13" cx="32.8" cy="121.9" r="12.4"/>
		<path class="st1" d="M34.4,117.3c0.4,0,0.9,0,1.3,0c0.1,0,0.1,0,0.2,0V115c-0.2,0-0.5-0.1-0.7-0.1c-0.5,0-0.9,0-1.4,0
			c-0.7,0-1.4,0.2-2,0.6c-0.7,0.5-1,1.2-1.2,2c-0.1,0.3-0.1,0.7-0.1,1c0,0.5,0,1,0,1.6v0.2h-2.2v2.6h2.2v6.6h2.7v-6.6h2.2
			c0.1-0.9,0.2-1.7,0.3-2.6c-0.2,0-0.3,0-0.5,0c-0.6,0-2.1,0-2.1,0s0-1.3,0-1.9C33.4,117.6,33.8,117.4,34.4,117.3z"/>
	</g>
	<g>
		<circle class="st13" cx="60.6" cy="121.9" r="12.4"/>
		<path class="st1" d="M58.4,125.6c-1.5-0.1-2.5-1.1-2.7-2c0.4,0.1,0.8,0.1,1.2,0c0,0,0,0,0,0c-0.8-0.2-1.4-0.6-1.9-1.3
			c-0.3-0.5-0.4-1-0.4-1.5c0.4,0.2,0.8,0.3,1.3,0.4c-0.6-0.4-1-1-1.2-1.8c-0.2-0.7-0.1-1.4,0.3-2.1c1.6,1.9,3.6,2.9,6,3
			c0-0.1,0-0.2,0-0.3c-0.1-0.7,0.1-1.3,0.4-1.9c0.5-0.7,1.1-1.2,2-1.3c1-0.2,1.8,0.1,2.5,0.8c0,0,0.1,0.1,0.2,0
			c0.6-0.1,1.2-0.3,1.7-0.6c0,0,0,0,0,0c0,0,0,0,0,0c-0.2,0.7-0.6,1.2-1.2,1.6c0.6-0.1,1.1-0.2,1.6-0.4c0,0,0,0,0,0
			c-0.1,0.1-0.2,0.3-0.3,0.4c-0.3,0.4-0.7,0.7-1.1,1c0,0,0,0,0,0.1c0,0.4,0,0.9-0.1,1.3c-0.1,0.9-0.4,1.8-0.7,2.6
			c-0.4,0.8-0.9,1.6-1.6,2.3c-1.1,1.1-2.4,1.9-4,2.2c-0.5,0.1-1.1,0.2-1.6,0.2c-1.7,0-3.2-0.4-4.7-1.2c0,0,0,0-0.1,0
			c1,0.1,2,0,2.9-0.4C57.5,126.2,57.9,125.9,58.4,125.6z"/>
	</g>
	<g>
		<circle class="st13" cx="88.4" cy="121.9" r="12.4"/>
		<path class="st4" d="M95,118.7c-0.1-0.9-0.4-1.6-1.1-2.2c-0.7-0.6-1.5-0.9-2.4-1c-1.5-0.1-5.2-0.1-6.5,0.1
			c-1.5,0.2-2.4,1.1-2.8,2.5c-0.3,1.1-0.3,6.2-0.1,7.4c0.2,1.5,1.1,2.5,2.6,2.9c1,0.3,6.1,0.2,7.2,0c1.5-0.2,2.5-1.1,2.9-2.6
			C95.2,124.6,95.1,119.7,95,118.7z M93.8,125.2c-0.2,1.1-0.9,1.9-2.1,2c-1.1,0.1-5.8,0.2-6.8-0.1c-0.9-0.3-1.5-0.9-1.6-1.8
			c-0.1-0.9-0.2-5.4,0-6.6c0.2-1.1,0.9-1.8,2.1-2c1.2-0.1,5.3-0.1,6.4,0c1.1,0.2,1.8,0.9,2,2.1C93.9,119.9,94,124.1,93.8,125.2z
			 M88.5,118.6c-1.9,0-3.4,1.5-3.4,3.4c0,1.9,1.5,3.4,3.4,3.4c1.9,0,3.4-1.5,3.4-3.4S90.4,118.6,88.5,118.6z M88.5,124.1
			c-1.2,0-2.2-1-2.2-2.2c0-1.2,1-2.2,2.2-2.2c1.2,0,2.2,1,2.2,2.2C90.7,123.2,89.7,124.1,88.5,124.1z M92.8,118.5
			c0,0.4-0.4,0.8-0.8,0.8c-0.4,0-0.8-0.4-0.8-0.8c0-0.4,0.4-0.8,0.8-0.8C92.5,117.7,92.8,118,92.8,118.5z"/>
		<path class="st4" d="M95,118.7c-0.1-0.9-0.4-1.6-1.1-2.2c-0.7-0.6-1.5-0.9-2.4-1c-1.5-0.1-5.2-0.1-6.5,0.1
			c-1.5,0.2-2.4,1.1-2.8,2.5c-0.3,1.1-0.3,6.2-0.1,7.4c0.2,1.5,1.1,2.5,2.6,2.9c1,0.3,6.1,0.2,7.2,0c1.5-0.2,2.5-1.1,2.9-2.6
			C95.2,124.6,95.1,119.7,95,118.7z M93.8,125.2c-0.2,1.1-0.9,1.9-2.1,2c-1.1,0.1-5.8,0.2-6.8-0.1c-0.9-0.3-1.5-0.9-1.6-1.8
			c-0.1-0.9-0.2-5.4,0-6.6c0.2-1.1,0.9-1.8,2.1-2c1.2-0.1,5.3-0.1,6.4,0c1.1,0.2,1.8,0.9,2,2.1C93.9,119.9,94,124.1,93.8,125.2z
			 M88.5,118.6c-1.9,0-3.4,1.5-3.4,3.4c0,1.9,1.5,3.4,3.4,3.4c1.9,0,3.4-1.5,3.4-3.4S90.4,118.6,88.5,118.6z M88.5,124.1
			c-1.2,0-2.2-1-2.2-2.2c0-1.2,1-2.2,2.2-2.2c1.2,0,2.2,1,2.2,2.2C90.7,123.2,89.7,124.1,88.5,124.1z M92.8,118.5
			c0,0.4-0.4,0.8-0.8,0.8c-0.4,0-0.8-0.4-0.8-0.8c0-0.4,0.4-0.8,0.8-0.8C92.5,117.7,92.8,118,92.8,118.5z"/>
	</g>
	<g>
		<circle class="st13" cx="116.2" cy="122.2" r="12.4"/>
		<path class="st1" d="M115.3,125c0,0,0,0.1,0,0.1c-0.5,2-0.6,2.5-1.1,3.4c-0.3,0.5-0.5,0.9-0.9,1.3c0,0-0.1,0.1-0.1,0.1
			c-0.1,0-0.1-0.1-0.1-0.2c-0.1-0.6-0.1-1.2-0.1-1.9c0-0.8,0.1-1.1,1.2-5.5c0-0.1,0-0.1,0-0.2c-0.3-0.7-0.3-1.4-0.1-2.1
			c0.5-1.5,2.2-1.6,2.5-0.4c0.2,0.8-0.3,1.8-0.7,3.3c-0.3,1.2,1.1,2.1,2.4,1.2c1.1-0.8,1.6-2.8,1.5-4.2c-0.2-2.8-3.2-3.4-5.2-2.5
			c-2.2,1-2.7,3.8-1.7,5.1c0.1,0.2,0.2,0.3,0.2,0.4c-0.1,0.3-0.1,0.5-0.2,0.8c-0.1,0.2-0.2,0.3-0.4,0.2c-0.4-0.2-0.7-0.4-0.9-0.7
			c-0.9-1.1-1.1-3.2,0-4.9c1.3-2,3.6-2.8,5.7-2.5c2.5,0.3,4.2,2,4.5,4c0.1,0.9,0,3.1-1.2,4.7c-1.4,1.8-3.8,1.9-4.9,0.8
			C115.5,125.2,115.4,125.1,115.3,125z"/>
	</g>
	<g>
		<circle class="st13" cx="144" cy="122.2" r="12.4"/>
		<path class="st1" d="M137.5,128.7c0.1-0.3,0.1-0.6,0.2-0.8c0.2-0.8,0.5-1.6,0.7-2.5c0-0.1,0-0.3,0-0.4c-2.1-4,0.1-8.8,4.4-9.8
			c4-0.9,7.6,1.8,8.2,5.3c0.7,3.7-1.8,7.3-5.5,8c-1.5,0.3-2.9,0-4.2-0.6c-0.1-0.1-0.3-0.1-0.4,0C139,128.3,137.8,128.7,137.5,128.7z
			 M139.1,127.2c0.7-0.2,1.3-0.3,1.9-0.5c0.2,0,0.3,0,0.5,0.1c1.2,0.7,2.4,0.9,3.8,0.7c3.1-0.5,5.2-3.4,4.7-6.4
			c-0.5-3.2-3.5-5.3-6.6-4.7c-3.8,0.7-5.8,5-3.9,8.3c0.2,0.4,0.3,0.7,0.1,1.1C139.3,126.1,139.2,126.6,139.1,127.2z"/>
		<path class="st1" d="M146.1,125.1c-1.3,0-3.4-1.1-4.9-3.6c-0.5-0.9-0.4-1.9,0.3-2.6c0.3-0.2,0.6-0.2,0.9-0.1
			c0.1,0,0.1,0.1,0.2,0.2c0.2,0.4,0.4,0.9,0.5,1.3c0.1,0.2-0.1,0.5-0.4,0.9c-0.1,0.1-0.1,0.2,0,0.4c0.6,0.9,1.3,1.6,2.4,2
			c0.2,0.1,0.3,0,0.4-0.1c0.5-0.7,0.6-0.9,0.9-0.7c1.4,0.7,1.5,0.7,1.5,0.8C147.8,124.7,146.7,125.1,146.1,125.1z"/>
	</g>
	<g>
		<circle class="st13" cx="171.8" cy="122.3" r="12.4"/>
		<path class="st4" d="M171.8,115c-4,0-7.3,3.3-7.3,7.3c0,4,3.3,7.3,7.3,7.3s7.3-3.3,7.3-7.3C179.1,118.2,175.8,115,171.8,115z
			 M176.5,118.5c0.7,0.9,1.2,2.1,1.3,3.4c-1.6-0.3-2.9-0.3-4.1-0.1c-0.2-0.3-0.3-0.7-0.5-1C174.6,120.3,175.7,119.5,176.5,118.5z
			 M175.6,117.6c-0.8,0.9-1.8,1.6-3,2.1c-0.1-0.2-0.3-0.4-0.4-0.6c-0.7-1.2-1.4-2.1-1.9-2.6c0.5-0.1,0.9-0.2,1.4-0.2
			C173.2,116.3,174.6,116.8,175.6,117.6z M169.1,116.9c0.5,0.5,1.4,1.6,2.3,3.2c-2.1,0.6-4.3,0.7-5.4,0.7
			C166.4,119.1,167.6,117.7,169.1,116.9z M165.8,122.3c0-0.1,0-0.1,0-0.2c0.2,0,0.3,0,0.5,0c0.9,0,2.2-0.1,3.5-0.3
			c0.8-0.1,1.5-0.3,2.1-0.5c0.1,0.3,0.3,0.6,0.4,0.9c-1.2,0.4-2.2,1-2.9,1.6c-1.1,0.9-1.8,1.8-2.2,2.5
			C166.3,125.2,165.8,123.8,165.8,122.3z M168.2,127.1c0.4-0.6,1-1.5,2.1-2.4c0.8-0.6,1.7-1.1,2.6-1.4c0.5,1.3,0.9,2.8,1.1,4.5
			c-0.7,0.3-1.4,0.4-2.2,0.4C170.5,128.3,169.2,127.8,168.2,127.1z M175.2,127.2c-0.2-1.5-0.6-2.9-1-4.2c1.1-0.2,2.3-0.1,3.6,0.2
			C177.5,124.9,176.5,126.3,175.2,127.2z"/>
	</g>
	<g>
		<circle class="st13" cx="227.4" cy="122.3" r="12.4"/>
		<path class="st4" d="M222.1,119.7h2.5v8.1h-2.5V119.7z M223.3,115.7c0.8,0,1.5,0.7,1.5,1.5c0,0.8-0.7,1.5-1.5,1.5
			c-0.8,0-1.5-0.7-1.5-1.5C221.9,116.3,222.5,115.7,223.3,115.7"/>
		<path class="st4" d="M226.2,119.7h2.4v1.1h0c0.3-0.6,1.2-1.3,2.4-1.3c2.5,0,3,1.7,3,3.8v4.4h-2.5v-3.9c0-0.9,0-2.1-1.3-2.1
			c-1.3,0-1.5,1-1.5,2.1v4h-2.5V119.7z"/>
	</g>
	<g>
		<circle class="st13" cx="255.2" cy="122.3" r="12.4"/>
		<path class="st12" d="M255.2,116c1.8,0,3.3,1.5,3.3,3.3c0,0.7,0,1.4,0,2c0.1,0,0.2,0,0.3,0c0.1,0,0.3,0,0.4-0.1
			c0.2-0.1,0.4-0.2,0.5-0.2c0.1,0,0.3,0.1,0.4,0.2c0.3,0.3,0,0.6-0.5,0.7c-0.4,0.2-1.1,0.3-1.1,0.9c0.2,0.7,0.6,1.4,1.4,2
			c0.7,0.5,1.2,0.6,1.4,0.6c0,0,0.1,0,0.1,0c0,0,0.1,0,0.1,0c0,0.1,0.1,0.5-0.7,0.7c-0.8,0.2-1,0.1-1.1,0.5
			c-0.2,0.4-0.1,0.6-0.3,0.6c-0.1,0-0.7-0.1-1.3-0.1c-0.2,0-0.5,0-0.6,0.1c-0.5,0.2-1.3,1.2-2.4,1.2c-1.2-0.1-1.9-1-2.4-1.2
			c-0.2-0.1-0.4-0.1-0.6-0.1c-0.5,0-1.1,0.1-1.3,0.1c-0.2,0-0.1-0.2-0.3-0.6c-0.2-0.4-0.3-0.3-1.1-0.5c-0.8-0.2-0.7-0.6-0.7-0.7
			c0,0,0,0,0.1,0c0,0,0.1,0,0.1,0c0.2,0,0.7,0,1.4-0.6c0.8-0.6,1.3-1.4,1.4-2c0-0.5-0.7-0.7-1.1-0.9c-0.5-0.2-0.8-0.4-0.5-0.7
			c0.1-0.1,0.3-0.2,0.4-0.2c0.2,0,0.3,0.1,0.5,0.2c0.1,0.1,0.3,0.1,0.4,0.1c0.1,0,0.3,0,0.3,0c0-0.6,0-1.3,0-2
			c0-1.8,1.5-3.3,3.3-3.3H255.2 M255.2,115.5h-0.1c-2.1,0-3.8,1.7-3.8,3.8v1.5c0,0,0,0,0,0c-0.2-0.1-0.5-0.2-0.7-0.2
			c-0.3,0-0.5,0.1-0.7,0.3c-0.3,0.3-0.3,0.6-0.2,0.7c0.1,0.3,0.4,0.6,0.9,0.8c0.1,0,0.1,0,0.2,0.1c0.2,0.1,0.6,0.2,0.6,0.3
			c-0.1,0.4-0.4,1.1-1.2,1.7c-0.6,0.5-1,0.5-1.1,0.5l-0.1,0l-0.1,0c-0.4,0-0.5,0.3-0.5,0.4c-0.1,0.5,0.1,1.1,1,1.3
			c0.3,0.1,0.5,0.1,0.6,0.1c0.1,0,0.1,0,0.2,0c0,0,0,0,0,0c0,0.1,0.1,0.2,0.1,0.3c0,0.2,0.2,0.6,0.7,0.6c0.1,0,0.2,0,0.3,0
			c0.2,0,0.6-0.1,0.9-0.1c0.3,0,0.4,0,0.4,0.1c0.1,0,0.3,0.2,0.4,0.3c0.5,0.4,1.2,0.9,2.2,1l0,0l0,0c1,0,1.7-0.6,2.2-1
			c0.2-0.1,0.3-0.3,0.4-0.3c0,0,0.1-0.1,0.4-0.1c0.3,0,0.7,0,0.9,0.1c0.2,0,0.3,0,0.3,0c0.5,0,0.6-0.4,0.7-0.6c0-0.1,0-0.2,0.1-0.3
			c0,0,0,0,0,0c0,0,0.1,0,0.2,0c0.1,0,0.3-0.1,0.6-0.1c1-0.2,1.2-0.8,1-1.3c0-0.1-0.1-0.4-0.5-0.4l-0.1,0l-0.1,0
			c-0.1,0-0.5,0-1.1-0.5c-0.8-0.6-1.1-1.2-1.2-1.7c0.1-0.1,0.4-0.3,0.6-0.3c0.1,0,0.1,0,0.2-0.1c0.5-0.2,0.8-0.5,0.9-0.8
			c0-0.1,0-0.4-0.2-0.7c-0.2-0.2-0.5-0.3-0.7-0.3c-0.3,0-0.5,0.1-0.7,0.2c0,0,0,0,0,0v-1.5C259,117.2,257.3,115.5,255.2,115.5
			L255.2,115.5z"/>
		<path class="st4" d="M255.2,128.6c1.2-0.1,1.9-1,2.4-1.2c0.5-0.2,1.7,0,1.9,0c0.2,0,0.1-0.2,0.3-0.6c0.2-0.4,0.3-0.3,1.1-0.5
			c0.8-0.2,0.7-0.6,0.7-0.7c0-0.1-0.5,0.2-1.6-0.6c-0.8-0.6-1.3-1.4-1.4-2c0-0.5,0.7-0.7,1.1-0.9c0.5-0.2,0.8-0.4,0.5-0.7
			c-0.3-0.3-0.6-0.2-0.9,0c-0.3,0.1-0.6,0.1-0.7,0c0-0.6,0-1.3,0-2c0-1.8-1.5-3.3-3.3-3.3h-0.1c-1.8,0-3.3,1.5-3.3,3.3
			c0,0.7,0,1.4,0,2c-0.1,0-0.4,0.1-0.7,0c-0.3-0.2-0.6-0.3-0.9,0c-0.3,0.3,0,0.6,0.5,0.7c0.4,0.2,1.1,0.3,1.1,0.9
			c-0.2,0.7-0.6,1.4-1.4,2c-1.1,0.8-1.5,0.5-1.6,0.6c0,0.1-0.1,0.5,0.7,0.7c0.8,0.2,1,0.1,1.1,0.5c0.2,0.4,0.1,0.6,0.3,0.6
			c0.2,0,1.4-0.2,1.9,0C253.2,127.6,254,128.5,255.2,128.6z"/>
	</g>
	<g>
		<circle class="st13" cx="199.6" cy="122.2" r="12.4"/>
		<path class="st1" d="M194.4,126.5c-0.5-0.2-0.8-0.5-1-1c-0.4-1.2-0.6-6.2,0.3-7.1c0.3-0.3,0.7-0.5,1.1-0.6c2.2-0.2,9.2-0.2,10,0.1
			c0.5,0.2,0.8,0.5,1,0.9c0.5,1.2,0.5,5.7-0.1,6.9c-0.1,0.3-0.4,0.5-0.7,0.7C204.1,126.8,195.5,126.8,194.4,126.5z M198,124.1
			c1.3-0.7,2.7-1.4,4-2.1c-1.4-0.7-2.7-1.4-4-2.1C198,121.3,198,122.7,198,124.1z"/>
	</g>
</g>
<g>
	<g>
		<path class="st0" d="M32.8,159.8c5.9,0,10.7,4.8,10.7,10.7s-4.8,10.7-10.7,10.7c-5.9,0-10.7-4.8-10.7-10.7S27,159.8,32.8,159.8
			 M32.8,158.1c-6.8,0-12.4,5.5-12.4,12.4c0,6.8,5.5,12.4,12.4,12.4c6.8,0,12.4-5.5,12.4-12.4C45.2,163.6,39.7,158.1,32.8,158.1
			L32.8,158.1z"/>
		<path class="st14" d="M34.4,165.8c0.4,0,0.9,0,1.3,0c0.1,0,0.1,0,0.2,0v-2.3c-0.2,0-0.5-0.1-0.7-0.1c-0.5,0-0.9,0-1.4,0
			c-0.7,0-1.4,0.2-2,0.6c-0.7,0.5-1,1.2-1.2,2c-0.1,0.3-0.1,0.7-0.1,1c0,0.5,0,1,0,1.6v0.2h-2.2v2.6h2.2v6.6h2.7v-6.6h2.2
			c0.1-0.9,0.2-1.7,0.3-2.6c-0.2,0-0.3,0-0.5,0c-0.6,0-2.1,0-2.1,0s0-1.3,0-1.9C33.4,166.1,33.8,165.9,34.4,165.8z"/>
	</g>
	<g>
		<path class="st2" d="M60.6,159.8c5.9,0,10.7,4.8,10.7,10.7s-4.8,10.7-10.7,10.7c-5.9,0-10.7-4.8-10.7-10.7S54.7,159.8,60.6,159.8
			 M60.6,158.1c-6.8,0-12.4,5.5-12.4,12.4c0,6.8,5.5,12.4,12.4,12.4S73,177.3,73,170.4C73,163.6,67.5,158.1,60.6,158.1L60.6,158.1z"
			/>
		<path class="st15" d="M58.4,174.1c-1.5-0.1-2.5-1.1-2.7-2c0.4,0.1,0.8,0.1,1.2,0c0,0,0,0,0,0c-0.8-0.2-1.4-0.6-1.9-1.3
			c-0.3-0.5-0.4-1-0.4-1.5c0.4,0.2,0.8,0.3,1.3,0.4c-0.6-0.4-1-1-1.2-1.8c-0.2-0.7-0.1-1.4,0.3-2.1c1.6,1.9,3.6,2.9,6,3
			c0-0.1,0-0.2,0-0.3c-0.1-0.7,0.1-1.3,0.4-1.9c0.5-0.7,1.1-1.2,2-1.3c1-0.2,1.8,0.1,2.5,0.8c0,0,0.1,0.1,0.2,0
			c0.6-0.1,1.2-0.3,1.7-0.6c0,0,0,0,0,0c0,0,0,0,0,0c-0.2,0.7-0.6,1.2-1.2,1.6c0.6-0.1,1.1-0.2,1.6-0.4c0,0,0,0,0,0
			c-0.1,0.1-0.2,0.3-0.3,0.4c-0.3,0.4-0.7,0.7-1.1,1c0,0,0,0,0,0.1c0,0.4,0,0.9-0.1,1.3c-0.1,0.9-0.4,1.8-0.7,2.6
			c-0.4,0.8-0.9,1.6-1.6,2.3c-1.1,1.1-2.4,1.9-4,2.2c-0.5,0.1-1.1,0.2-1.6,0.2c-1.7,0-3.2-0.4-4.7-1.2c0,0,0,0-0.1,0
			c1,0.1,2,0,2.9-0.4C57.5,174.7,57.9,174.4,58.4,174.1z"/>
	</g>
	<g>
		<linearGradient id="SVGID_2_" gradientUnits="userSpaceOnUse" x1="96.9127" y1="161.9371" x2="78.748" y2="180.1018">
			<stop  offset="1.075300e-002" style="stop-color:#3542E0"/>
			<stop  offset="0.1748" style="stop-color:#3841DF"/>
			<stop  offset="0.2744" style="stop-color:#403FDA"/>
			<stop  offset="0.357" style="stop-color:#4E3CD2"/>
			<stop  offset="0.4301" style="stop-color:#6337C7"/>
			<stop  offset="0.4971" style="stop-color:#7D31B9"/>
			<stop  offset="0.5595" style="stop-color:#9E2AA8"/>
			<stop  offset="0.6173" style="stop-color:#C32193"/>
			<stop  offset="0.6236" style="stop-color:#C82091"/>
			<stop  offset="0.7612" style="stop-color:#F62B37"/>
			<stop  offset="1" style="stop-color:#FFC658"/>
		</linearGradient>
		<path class="st16" d="M88.4,159.8c5.9,0,10.7,4.8,10.7,10.7s-4.8,10.7-10.7,10.7c-5.9,0-10.7-4.8-10.7-10.7S82.5,159.8,88.4,159.8
			 M88.4,158.1c-6.8,0-12.4,5.5-12.4,12.4c0,6.8,5.5,12.4,12.4,12.4s12.4-5.5,12.4-12.4C100.8,163.6,95.2,158.1,88.4,158.1
			L88.4,158.1z"/>
		<linearGradient id="SVGID_3_" gradientUnits="userSpaceOnUse" x1="96.9902" y1="162.0145" x2="78.8255" y2="180.1792">
			<stop  offset="1.075300e-002" style="stop-color:#3542E0"/>
			<stop  offset="0.1748" style="stop-color:#3841DF"/>
			<stop  offset="0.2744" style="stop-color:#403FDA"/>
			<stop  offset="0.357" style="stop-color:#4E3CD2"/>
			<stop  offset="0.4301" style="stop-color:#6337C7"/>
			<stop  offset="0.4971" style="stop-color:#7D31B9"/>
			<stop  offset="0.5595" style="stop-color:#9E2AA8"/>
			<stop  offset="0.6173" style="stop-color:#C32193"/>
			<stop  offset="0.6236" style="stop-color:#C82091"/>
			<stop  offset="0.7612" style="stop-color:#F62B37"/>
			<stop  offset="1" style="stop-color:#FFC658"/>
		</linearGradient>
		<path class="st17" d="M95,167.2c-0.1-0.9-0.4-1.6-1.1-2.2c-0.7-0.6-1.5-0.9-2.4-1c-1.5-0.1-5.2-0.1-6.5,0.1
			c-1.5,0.2-2.4,1.1-2.8,2.5c-0.3,1.1-0.3,6.2-0.1,7.4c0.2,1.5,1.1,2.5,2.6,2.9c1,0.3,6.1,0.2,7.2,0c1.5-0.2,2.5-1.1,2.9-2.6
			C95.2,173.1,95.1,168.2,95,167.2z M93.8,173.7c-0.2,1.1-0.9,1.9-2.1,2c-1.1,0.1-5.8,0.2-6.8-0.1c-0.9-0.3-1.5-0.9-1.6-1.8
			c-0.1-0.9-0.2-5.4,0-6.6c0.2-1.1,0.9-1.8,2.1-2c1.2-0.1,5.3-0.1,6.4,0c1.1,0.2,1.8,0.9,2,2.1C93.9,168.4,94,172.6,93.8,173.7z
			 M88.5,167.1c-1.9,0-3.4,1.5-3.4,3.4c0,1.9,1.5,3.4,3.4,3.4c1.9,0,3.4-1.5,3.4-3.4C91.9,168.6,90.4,167.1,88.5,167.1z M88.5,172.6
			c-1.2,0-2.2-1-2.2-2.2c0-1.2,1-2.2,2.2-2.2c1.2,0,2.2,1,2.2,2.2C90.7,171.7,89.7,172.6,88.5,172.6z M92.8,167
			c0,0.4-0.4,0.8-0.8,0.8c-0.4,0-0.8-0.4-0.8-0.8c0-0.4,0.4-0.8,0.8-0.8C92.5,166.2,92.8,166.5,92.8,167z"/>
		<linearGradient id="SVGID_4_" gradientUnits="userSpaceOnUse" x1="96.9902" y1="162.0145" x2="78.8255" y2="180.1792">
			<stop  offset="1.075300e-002" style="stop-color:#3542E0"/>
			<stop  offset="0.1748" style="stop-color:#3841DF"/>
			<stop  offset="0.2744" style="stop-color:#403FDA"/>
			<stop  offset="0.357" style="stop-color:#4E3CD2"/>
			<stop  offset="0.4301" style="stop-color:#6337C7"/>
			<stop  offset="0.4971" style="stop-color:#7D31B9"/>
			<stop  offset="0.5595" style="stop-color:#9E2AA8"/>
			<stop  offset="0.6173" style="stop-color:#C32193"/>
			<stop  offset="0.6236" style="stop-color:#C82091"/>
			<stop  offset="0.7612" style="stop-color:#F62B37"/>
			<stop  offset="1" style="stop-color:#FFC658"/>
		</linearGradient>
		<path class="st18" d="M95,167.2c-0.1-0.9-0.4-1.6-1.1-2.2c-0.7-0.6-1.5-0.9-2.4-1c-1.5-0.1-5.2-0.1-6.5,0.1
			c-1.5,0.2-2.4,1.1-2.8,2.5c-0.3,1.1-0.3,6.2-0.1,7.4c0.2,1.5,1.1,2.5,2.6,2.9c1,0.3,6.1,0.2,7.2,0c1.5-0.2,2.5-1.1,2.9-2.6
			C95.2,173.1,95.1,168.2,95,167.2z M93.8,173.7c-0.2,1.1-0.9,1.9-2.1,2c-1.1,0.1-5.8,0.2-6.8-0.1c-0.9-0.3-1.5-0.9-1.6-1.8
			c-0.1-0.9-0.2-5.4,0-6.6c0.2-1.1,0.9-1.8,2.1-2c1.2-0.1,5.3-0.1,6.4,0c1.1,0.2,1.8,0.9,2,2.1C93.9,168.4,94,172.6,93.8,173.7z
			 M88.5,167.1c-1.9,0-3.4,1.5-3.4,3.4c0,1.9,1.5,3.4,3.4,3.4c1.9,0,3.4-1.5,3.4-3.4C91.9,168.6,90.4,167.1,88.5,167.1z M88.5,172.6
			c-1.2,0-2.2-1-2.2-2.2c0-1.2,1-2.2,2.2-2.2c1.2,0,2.2,1,2.2,2.2C90.7,171.7,89.7,172.6,88.5,172.6z M92.8,167
			c0,0.4-0.4,0.8-0.8,0.8c-0.4,0-0.8-0.4-0.8-0.8c0-0.4,0.4-0.8,0.8-0.8C92.5,166.2,92.8,166.5,92.8,167z"/>
	</g>
	<g>
		<path class="st5" d="M116.2,160c5.9,0,10.7,4.8,10.7,10.7c0,5.9-4.8,10.7-10.7,10.7c-5.9,0-10.7-4.8-10.7-10.7
			C105.5,164.8,110.3,160,116.2,160 M116.2,158.3c-6.8,0-12.4,5.5-12.4,12.4c0,6.8,5.5,12.4,12.4,12.4c6.8,0,12.4-5.5,12.4-12.4
			C128.6,163.9,123,158.3,116.2,158.3L116.2,158.3z"/>
		<path class="st19" d="M115.3,173.5c0,0,0,0.1,0,0.1c-0.5,2-0.6,2.5-1.1,3.4c-0.3,0.5-0.5,0.9-0.9,1.3c0,0-0.1,0.1-0.1,0.1
			c-0.1,0-0.1-0.1-0.1-0.2c-0.1-0.6-0.1-1.2-0.1-1.9c0-0.8,0.1-1.1,1.2-5.5c0-0.1,0-0.1,0-0.2c-0.3-0.7-0.3-1.4-0.1-2.1
			c0.5-1.5,2.2-1.6,2.5-0.4c0.2,0.8-0.3,1.8-0.7,3.3c-0.3,1.2,1.1,2.1,2.4,1.2c1.1-0.8,1.6-2.8,1.5-4.2c-0.2-2.8-3.2-3.4-5.2-2.5
			c-2.2,1-2.7,3.8-1.7,5.1c0.1,0.2,0.2,0.3,0.2,0.4c-0.1,0.3-0.1,0.5-0.2,0.8c-0.1,0.2-0.2,0.3-0.4,0.2c-0.4-0.2-0.7-0.4-0.9-0.7
			c-0.9-1.1-1.1-3.2,0-4.9c1.3-2,3.6-2.8,5.7-2.5c2.5,0.3,4.2,2,4.5,4c0.1,0.9,0,3.1-1.2,4.7c-1.4,1.8-3.8,1.9-4.9,0.8
			C115.5,173.7,115.4,173.6,115.3,173.5z"/>
	</g>
	<g>
		<path class="st6" d="M144,160c5.9,0,10.7,4.8,10.7,10.7c0,5.9-4.8,10.7-10.7,10.7c-5.9,0-10.7-4.8-10.7-10.7
			C133.3,164.8,138.1,160,144,160 M144,158.3c-6.8,0-12.4,5.5-12.4,12.4c0,6.8,5.5,12.4,12.4,12.4c6.8,0,12.4-5.5,12.4-12.4
			C156.4,163.9,150.8,158.3,144,158.3L144,158.3z"/>
		<path class="st20" d="M137.5,177.2c0.1-0.3,0.1-0.6,0.2-0.8c0.2-0.8,0.5-1.6,0.7-2.5c0-0.1,0-0.3,0-0.4c-2.1-4,0.1-8.8,4.4-9.8
			c4-0.9,7.6,1.8,8.2,5.3c0.7,3.7-1.8,7.3-5.5,8c-1.5,0.3-2.9,0-4.2-0.6c-0.1-0.1-0.3-0.1-0.4,0C139,176.8,137.8,177.2,137.5,177.2z
			 M139.1,175.7c0.7-0.2,1.3-0.3,1.9-0.5c0.2,0,0.3,0,0.5,0.1c1.2,0.7,2.4,0.9,3.8,0.7c3.1-0.5,5.2-3.4,4.7-6.4
			c-0.5-3.2-3.5-5.3-6.6-4.7c-3.8,0.7-5.8,5-3.9,8.3c0.2,0.4,0.3,0.7,0.1,1.1C139.3,174.6,139.2,175.1,139.1,175.7z"/>
		<path class="st20" d="M146.1,173.6c-1.3,0-3.4-1.1-4.9-3.6c-0.5-0.9-0.4-1.9,0.3-2.6c0.3-0.2,0.6-0.2,0.9-0.1
			c0.1,0,0.1,0.1,0.2,0.2c0.2,0.4,0.4,0.9,0.5,1.3c0.1,0.2-0.1,0.5-0.4,0.9c-0.1,0.1-0.1,0.2,0,0.4c0.6,0.9,1.3,1.6,2.4,2
			c0.2,0.1,0.3,0,0.4-0.1c0.5-0.7,0.6-0.9,0.9-0.7c1.4,0.7,1.5,0.7,1.5,0.8C147.8,173.2,146.7,173.6,146.1,173.6z"/>
	</g>
	<g>
		<path class="st7" d="M171.8,160.1c5.9,0,10.7,4.8,10.7,10.7c0,5.9-4.8,10.7-10.7,10.7c-5.9,0-10.7-4.8-10.7-10.7
			C161.1,164.9,165.9,160.1,171.8,160.1 M171.8,158.4c-6.8,0-12.4,5.5-12.4,12.4c0,6.8,5.5,12.4,12.4,12.4c6.8,0,12.4-5.5,12.4-12.4
			C184.1,163.9,178.6,158.4,171.8,158.4L171.8,158.4z"/>
		<path class="st7" d="M171.8,163.5c-4,0-7.3,3.3-7.3,7.3c0,4,3.3,7.3,7.3,7.3s7.3-3.3,7.3-7.3C179.1,166.8,175.8,163.5,171.8,163.5
			z M176.5,167c0.7,0.9,1.2,2.1,1.3,3.4c-1.6-0.3-2.9-0.3-4.1-0.1c-0.2-0.3-0.3-0.7-0.5-1C174.6,168.8,175.7,168,176.5,167z
			 M175.6,166.1c-0.8,0.9-1.8,1.6-3,2.1c-0.1-0.2-0.3-0.4-0.4-0.6c-0.7-1.2-1.4-2.1-1.9-2.6c0.5-0.1,0.9-0.2,1.4-0.2
			C173.2,164.8,174.6,165.3,175.6,166.1z M169.1,165.4c0.5,0.5,1.4,1.6,2.3,3.2c-2.1,0.6-4.3,0.7-5.4,0.7
			C166.4,167.6,167.6,166.2,169.1,165.4z M165.8,170.8c0-0.1,0-0.1,0-0.2c0.2,0,0.3,0,0.5,0c0.9,0,2.2-0.1,3.5-0.3
			c0.8-0.1,1.5-0.3,2.1-0.5c0.1,0.3,0.3,0.6,0.4,0.9c-1.2,0.4-2.2,1-2.9,1.6c-1.1,0.9-1.8,1.8-2.2,2.5
			C166.3,173.7,165.8,172.3,165.8,170.8z M168.2,175.6c0.4-0.6,1-1.5,2.1-2.4c0.8-0.6,1.7-1.1,2.6-1.4c0.5,1.3,0.9,2.8,1.1,4.5
			c-0.7,0.3-1.4,0.4-2.2,0.4C170.5,176.8,169.2,176.3,168.2,175.6z M175.2,175.7c-0.2-1.5-0.6-2.9-1-4.2c1.1-0.2,2.3-0.1,3.6,0.2
			C177.5,173.4,176.5,174.8,175.2,175.7z"/>
	</g>
	<g>
		<path class="st8" d="M227.4,160.1c5.9,0,10.7,4.8,10.7,10.7c0,5.9-4.8,10.7-10.7,10.7s-10.7-4.8-10.7-10.7
			C216.7,164.9,221.5,160.1,227.4,160.1 M227.4,158.4c-6.8,0-12.4,5.5-12.4,12.4c0,6.8,5.5,12.4,12.4,12.4c6.8,0,12.4-5.5,12.4-12.4
			C239.7,163.9,234.2,158.4,227.4,158.4L227.4,158.4z"/>
		<path class="st8" d="M222.1,168.2h2.5v8.1h-2.5V168.2z M223.3,164.2c0.8,0,1.5,0.7,1.5,1.5c0,0.8-0.7,1.5-1.5,1.5
			c-0.8,0-1.5-0.7-1.5-1.5C221.9,164.8,222.5,164.2,223.3,164.2"/>
		<path class="st8" d="M226.2,168.2h2.4v1.1h0c0.3-0.6,1.2-1.3,2.4-1.3c2.5,0,3,1.7,3,3.8v4.4h-2.5v-3.9c0-0.9,0-2.1-1.3-2.1
			c-1.3,0-1.5,1-1.5,2.1v4h-2.5V168.2z"/>
	</g>
	<g>
		<path class="st9" d="M255.2,160.1c5.9,0,10.7,4.8,10.7,10.7c0,5.9-4.8,10.7-10.7,10.7c-5.9,0-10.7-4.8-10.7-10.7
			C244.5,164.9,249.3,160.1,255.2,160.1 M255.2,158.4c-6.8,0-12.4,5.5-12.4,12.4c0,6.8,5.5,12.4,12.4,12.4c6.8,0,12.4-5.5,12.4-12.4
			C267.5,163.9,262,158.4,255.2,158.4L255.2,158.4z"/>
		<path class="st10" d="M255.2,164.5c1.8,0,3.3,1.5,3.3,3.3c0,0.7,0,1.4,0,2c0.1,0,0.2,0,0.3,0c0.1,0,0.3,0,0.4-0.1
			c0.2-0.1,0.4-0.2,0.5-0.2c0.1,0,0.3,0.1,0.4,0.2c0.3,0.3,0,0.6-0.5,0.7c-0.4,0.2-1.1,0.3-1.1,0.9c0.2,0.7,0.6,1.4,1.4,2
			c0.7,0.5,1.2,0.6,1.4,0.6c0,0,0.1,0,0.1,0c0,0,0.1,0,0.1,0c0,0.1,0.1,0.5-0.7,0.7c-0.8,0.2-1,0.1-1.1,0.5
			c-0.2,0.4-0.1,0.6-0.3,0.6c-0.1,0-0.7-0.1-1.3-0.1c-0.2,0-0.5,0-0.6,0.1c-0.5,0.2-1.3,1.2-2.4,1.2c-1.2-0.1-1.9-1-2.4-1.2
			c-0.2-0.1-0.4-0.1-0.6-0.1c-0.5,0-1.1,0.1-1.3,0.1c-0.2,0-0.1-0.2-0.3-0.6c-0.2-0.4-0.3-0.3-1.1-0.5c-0.8-0.2-0.7-0.6-0.7-0.7
			c0,0,0,0,0.1,0c0,0,0.1,0,0.1,0c0.2,0,0.7,0,1.4-0.6c0.8-0.6,1.3-1.4,1.4-2c0-0.5-0.7-0.7-1.1-0.9c-0.5-0.2-0.8-0.4-0.5-0.7
			c0.1-0.1,0.3-0.2,0.4-0.2c0.2,0,0.3,0.1,0.5,0.2c0.1,0.1,0.3,0.1,0.4,0.1c0.1,0,0.3,0,0.3,0c0-0.6,0-1.3,0-2
			c0-1.8,1.5-3.3,3.3-3.3H255.2 M255.2,164h-0.1c-2.1,0-3.8,1.7-3.8,3.8v1.5c0,0,0,0,0,0c-0.2-0.1-0.5-0.2-0.7-0.2
			c-0.3,0-0.5,0.1-0.7,0.3c-0.3,0.3-0.3,0.6-0.2,0.7c0.1,0.3,0.4,0.6,0.9,0.8c0.1,0,0.1,0,0.2,0.1c0.2,0.1,0.6,0.2,0.6,0.3
			c-0.1,0.4-0.4,1.1-1.2,1.7c-0.6,0.5-1,0.5-1.1,0.5l-0.1,0l-0.1,0c-0.4,0-0.5,0.3-0.5,0.4c-0.1,0.5,0.1,1.1,1,1.3
			c0.3,0.1,0.5,0.1,0.6,0.1c0.1,0,0.1,0,0.2,0c0,0,0,0,0,0c0,0.1,0.1,0.2,0.1,0.3c0,0.2,0.2,0.6,0.7,0.6c0.1,0,0.2,0,0.3,0
			c0.2,0,0.6-0.1,0.9-0.1c0.3,0,0.4,0,0.4,0.1c0.1,0,0.3,0.2,0.4,0.3c0.5,0.4,1.2,0.9,2.2,1l0,0l0,0c1,0,1.7-0.6,2.2-1
			c0.2-0.1,0.3-0.3,0.4-0.3c0,0,0.1-0.1,0.4-0.1c0.3,0,0.7,0,0.9,0.1c0.2,0,0.3,0,0.3,0c0.5,0,0.6-0.4,0.7-0.6c0-0.1,0-0.2,0.1-0.3
			c0,0,0,0,0,0c0,0,0.1,0,0.2,0c0.1,0,0.3-0.1,0.6-0.1c1-0.2,1.2-0.8,1-1.3c0-0.1-0.1-0.4-0.5-0.4l-0.1,0l-0.1,0
			c-0.1,0-0.5,0-1.1-0.5c-0.8-0.6-1.1-1.2-1.2-1.7c0.1-0.1,0.4-0.3,0.6-0.3c0.1,0,0.1,0,0.2-0.1c0.5-0.2,0.8-0.5,0.9-0.8
			c0-0.1,0-0.4-0.2-0.7c-0.2-0.2-0.5-0.3-0.7-0.3c-0.3,0-0.5,0.1-0.7,0.2c0,0,0,0,0,0v-1.5C259,165.7,257.3,164,255.2,164L255.2,164
			z"/>
		<path class="st4" d="M255.2,177.1c1.2-0.1,1.9-1,2.4-1.2c0.5-0.2,1.7,0,1.9,0c0.2,0,0.1-0.2,0.3-0.6c0.2-0.4,0.3-0.3,1.1-0.5
			c0.8-0.2,0.7-0.6,0.7-0.7c0-0.1-0.5,0.2-1.6-0.6c-0.8-0.6-1.3-1.4-1.4-2c0-0.5,0.7-0.7,1.1-0.9c0.5-0.2,0.8-0.4,0.5-0.7
			c-0.3-0.3-0.6-0.2-0.9,0c-0.3,0.1-0.6,0.1-0.7,0c0-0.6,0-1.3,0-2c0-1.8-1.5-3.3-3.3-3.3h-0.1c-1.8,0-3.3,1.5-3.3,3.3
			c0,0.7,0,1.4,0,2c-0.1,0-0.4,0.1-0.7,0c-0.3-0.2-0.6-0.3-0.9,0c-0.3,0.3,0,0.6,0.5,0.7c0.4,0.2,1.1,0.3,1.1,0.9
			c-0.2,0.7-0.6,1.4-1.4,2c-1.1,0.8-1.5,0.5-1.6,0.6c0,0.1-0.1,0.5,0.7,0.7c0.8,0.2,1,0.1,1.1,0.5c0.2,0.4,0.1,0.6,0.3,0.6
			c0.2,0,1.4-0.2,1.9,0C253.2,176.1,254,177,255.2,177.1z"/>
	</g>
	<g>
		<path class="st11" d="M199.6,160c5.9,0,10.7,4.8,10.7,10.7c0,5.9-4.8,10.7-10.7,10.7c-5.9,0-10.7-4.8-10.7-10.7
			C188.9,164.8,193.7,160,199.6,160 M199.6,158.3c-6.8,0-12.4,5.5-12.4,12.4c0,6.8,5.5,12.4,12.4,12.4c6.8,0,12.4-5.5,12.4-12.4
			C211.9,163.9,206.4,158.3,199.6,158.3L199.6,158.3z"/>
		<path class="st21" d="M194.4,175c-0.5-0.2-0.8-0.5-1-1c-0.4-1.2-0.6-6.2,0.3-7.1c0.3-0.3,0.7-0.5,1.1-0.6c2.2-0.2,9.2-0.2,10,0.1
			c0.5,0.2,0.8,0.5,1,0.9c0.5,1.2,0.5,5.7-0.1,6.9c-0.1,0.3-0.4,0.5-0.7,0.7C204.1,175.3,195.5,175.3,194.4,175z M198,172.6
			c1.3-0.7,2.7-1.4,4-2.1c-1.4-0.7-2.7-1.4-4-2.1C198,169.8,198,171.2,198,172.6z"/>
	</g>
</g>
<g>
	<g>
		<path d="M32.8,189.4c5.9,0,10.7,4.8,10.7,10.7c0,5.9-4.8,10.7-10.7,10.7c-5.9,0-10.7-4.8-10.7-10.7
			C22.2,194.2,27,189.4,32.8,189.4 M32.8,187.7c-6.8,0-12.4,5.5-12.4,12.4c0,6.8,5.5,12.4,12.4,12.4c6.8,0,12.4-5.5,12.4-12.4
			C45.2,193.2,39.7,187.7,32.8,187.7L32.8,187.7z"/>
		<path class="st22" d="M34.4,195.5c0.4,0,0.9,0,1.3,0c0.1,0,0.1,0,0.2,0v-2.3c-0.2,0-0.5-0.1-0.7-0.1c-0.5,0-0.9,0-1.4,0
			c-0.7,0-1.4,0.2-2,0.6c-0.7,0.5-1,1.2-1.2,2c-0.1,0.3-0.1,0.7-0.1,1c0,0.5,0,1,0,1.6v0.2h-2.2v2.6h2.2v6.6h2.7V201h2.2
			c0.1-0.9,0.2-1.7,0.3-2.6c-0.2,0-0.3,0-0.5,0c-0.6,0-2.1,0-2.1,0s0-1.3,0-1.9C33.4,195.7,33.8,195.5,34.4,195.5z"/>
	</g>
	<g>
		<path d="M60.6,189.4c5.9,0,10.7,4.8,10.7,10.7c0,5.9-4.8,10.7-10.7,10.7c-5.9,0-10.7-4.8-10.7-10.7
			C50,194.2,54.7,189.4,60.6,189.4 M60.6,187.7c-6.8,0-12.4,5.5-12.4,12.4c0,6.8,5.5,12.4,12.4,12.4S73,206.9,73,200.1
			C73,193.2,67.5,187.7,60.6,187.7L60.6,187.7z"/>
		<path class="st22" d="M58.4,203.7c-1.5-0.1-2.5-1.1-2.7-2c0.4,0.1,0.8,0.1,1.2,0c0,0,0,0,0,0c-0.8-0.2-1.4-0.6-1.9-1.3
			c-0.3-0.5-0.4-1-0.4-1.5c0.4,0.2,0.8,0.3,1.3,0.4c-0.6-0.4-1-1-1.2-1.8c-0.2-0.7-0.1-1.4,0.3-2.1c1.6,1.9,3.6,2.9,6,3
			c0-0.1,0-0.2,0-0.3c-0.1-0.7,0.1-1.3,0.4-1.9c0.5-0.7,1.1-1.2,2-1.3c1-0.2,1.8,0.1,2.5,0.8c0,0,0.1,0.1,0.2,0
			c0.6-0.1,1.2-0.3,1.7-0.6c0,0,0,0,0,0c0,0,0,0,0,0c-0.2,0.7-0.6,1.2-1.2,1.6c0.6-0.1,1.1-0.2,1.6-0.4c0,0,0,0,0,0
			c-0.1,0.1-0.2,0.3-0.3,0.4c-0.3,0.4-0.7,0.7-1.1,1c0,0,0,0,0,0.1c0,0.4,0,0.9-0.1,1.3c-0.1,0.9-0.4,1.8-0.7,2.6
			c-0.4,0.8-0.9,1.6-1.6,2.3c-1.1,1.1-2.4,1.9-4,2.2c-0.5,0.1-1.1,0.2-1.6,0.2c-1.7,0-3.2-0.4-4.7-1.2c0,0,0,0-0.1,0
			c1,0.1,2,0,2.9-0.4C57.5,204.3,57.9,204.1,58.4,203.7z"/>
	</g>
	<g>
		<path d="M88.4,189.4c5.9,0,10.7,4.8,10.7,10.7c0,5.9-4.8,10.7-10.7,10.7c-5.9,0-10.7-4.8-10.7-10.7
			C77.7,194.2,82.5,189.4,88.4,189.4 M88.4,187.7c-6.8,0-12.4,5.5-12.4,12.4c0,6.8,5.5,12.4,12.4,12.4s12.4-5.5,12.4-12.4
			C100.8,193.2,95.2,187.7,88.4,187.7L88.4,187.7z"/>
		<path d="M95,196.8c-0.1-0.9-0.4-1.6-1.1-2.2c-0.7-0.6-1.5-0.9-2.4-1c-1.5-0.1-5.2-0.1-6.5,0.1c-1.5,0.2-2.4,1.1-2.8,2.5
			c-0.3,1.1-0.3,6.2-0.1,7.4c0.2,1.5,1.1,2.5,2.6,2.9c1,0.3,6.1,0.2,7.2,0c1.5-0.2,2.5-1.1,2.9-2.6C95.2,202.7,95.1,197.9,95,196.8z
			 M93.8,203.4c-0.2,1.1-0.9,1.9-2.1,2c-1.1,0.1-5.8,0.2-6.8-0.1c-0.9-0.3-1.5-0.9-1.6-1.8c-0.1-0.9-0.2-5.4,0-6.6
			c0.2-1.1,0.9-1.8,2.1-2c1.2-0.1,5.3-0.1,6.4,0c1.1,0.2,1.8,0.9,2,2.1C93.9,198,94,202.2,93.8,203.4z M88.5,196.7
			c-1.9,0-3.4,1.5-3.4,3.4c0,1.9,1.5,3.4,3.4,3.4c1.9,0,3.4-1.5,3.4-3.4C91.9,198.2,90.4,196.7,88.5,196.7z M88.5,202.3
			c-1.2,0-2.2-1-2.2-2.2c0-1.2,1-2.2,2.2-2.2c1.2,0,2.2,1,2.2,2.2C90.7,201.3,89.7,202.3,88.5,202.3z M92.8,196.6
			c0,0.4-0.4,0.8-0.8,0.8c-0.4,0-0.8-0.4-0.8-0.8c0-0.4,0.4-0.8,0.8-0.8C92.5,195.8,92.8,196.2,92.8,196.6z"/>
		<path d="M95,196.8c-0.1-0.9-0.4-1.6-1.1-2.2c-0.7-0.6-1.5-0.9-2.4-1c-1.5-0.1-5.2-0.1-6.5,0.1c-1.5,0.2-2.4,1.1-2.8,2.5
			c-0.3,1.1-0.3,6.2-0.1,7.4c0.2,1.5,1.1,2.5,2.6,2.9c1,0.3,6.1,0.2,7.2,0c1.5-0.2,2.5-1.1,2.9-2.6C95.2,202.7,95.1,197.9,95,196.8z
			 M93.8,203.4c-0.2,1.1-0.9,1.9-2.1,2c-1.1,0.1-5.8,0.2-6.8-0.1c-0.9-0.3-1.5-0.9-1.6-1.8c-0.1-0.9-0.2-5.4,0-6.6
			c0.2-1.1,0.9-1.8,2.1-2c1.2-0.1,5.3-0.1,6.4,0c1.1,0.2,1.8,0.9,2,2.1C93.9,198,94,202.2,93.8,203.4z M88.5,196.7
			c-1.9,0-3.4,1.5-3.4,3.4c0,1.9,1.5,3.4,3.4,3.4c1.9,0,3.4-1.5,3.4-3.4C91.9,198.2,90.4,196.7,88.5,196.7z M88.5,202.3
			c-1.2,0-2.2-1-2.2-2.2c0-1.2,1-2.2,2.2-2.2c1.2,0,2.2,1,2.2,2.2C90.7,201.3,89.7,202.3,88.5,202.3z M92.8,196.6
			c0,0.4-0.4,0.8-0.8,0.8c-0.4,0-0.8-0.4-0.8-0.8c0-0.4,0.4-0.8,0.8-0.8C92.5,195.8,92.8,196.2,92.8,196.6z"/>
	</g>
	<g>
		<path d="M116.2,189.6c5.9,0,10.7,4.8,10.7,10.7c0,5.9-4.8,10.7-10.7,10.7c-5.9,0-10.7-4.8-10.7-10.7
			C105.5,194.4,110.3,189.6,116.2,189.6 M116.2,187.9c-6.8,0-12.4,5.5-12.4,12.4c0,6.8,5.5,12.4,12.4,12.4c6.8,0,12.4-5.5,12.4-12.4
			C128.6,193.5,123,187.9,116.2,187.9L116.2,187.9z"/>
		<path class="st22" d="M115.3,203.1c0,0,0,0.1,0,0.1c-0.5,2-0.6,2.5-1.1,3.4c-0.3,0.5-0.5,0.9-0.9,1.3c0,0-0.1,0.1-0.1,0.1
			c-0.1,0-0.1-0.1-0.1-0.2c-0.1-0.6-0.1-1.2-0.1-1.9c0-0.8,0.1-1.1,1.2-5.5c0-0.1,0-0.1,0-0.2c-0.3-0.7-0.3-1.4-0.1-2.1
			c0.5-1.5,2.2-1.6,2.5-0.4c0.2,0.8-0.3,1.8-0.7,3.3c-0.3,1.2,1.1,2.1,2.4,1.2c1.1-0.8,1.6-2.8,1.5-4.2c-0.2-2.8-3.2-3.4-5.2-2.5
			c-2.2,1-2.7,3.8-1.7,5.1c0.1,0.2,0.2,0.3,0.2,0.4c-0.1,0.3-0.1,0.5-0.2,0.8c-0.1,0.2-0.2,0.3-0.4,0.2c-0.4-0.1-0.7-0.4-0.9-0.7
			c-0.9-1.1-1.1-3.2,0-4.9c1.3-2,3.6-2.8,5.7-2.5c2.5,0.3,4.2,2,4.5,4c0.1,0.9,0,3.1-1.2,4.7c-1.4,1.8-3.8,1.9-4.9,0.8
			C115.5,203.3,115.4,203.2,115.3,203.1z"/>
	</g>
	<g>
		<path d="M144,189.6c5.9,0,10.7,4.8,10.7,10.7c0,5.9-4.8,10.7-10.7,10.7c-5.9,0-10.7-4.8-10.7-10.7
			C133.3,194.4,138.1,189.6,144,189.6 M144,187.9c-6.8,0-12.4,5.5-12.4,12.4c0,6.8,5.5,12.4,12.4,12.4c6.8,0,12.4-5.5,12.4-12.4
			C156.4,193.5,150.8,187.9,144,187.9L144,187.9z"/>
		<path class="st22" d="M137.5,206.9c0.1-0.3,0.1-0.6,0.2-0.8c0.2-0.8,0.5-1.6,0.7-2.5c0-0.1,0-0.3,0-0.4c-2.1-4,0.1-8.8,4.4-9.8
			c4-0.9,7.6,1.8,8.2,5.3c0.7,3.7-1.8,7.3-5.5,8c-1.5,0.3-2.9,0-4.2-0.6c-0.1-0.1-0.3-0.1-0.4,0C139,206.5,137.8,206.8,137.5,206.9z
			 M139.1,205.3c0.7-0.2,1.3-0.3,1.9-0.5c0.2,0,0.3,0,0.5,0.1c1.2,0.7,2.4,0.9,3.8,0.7c3.1-0.5,5.2-3.4,4.7-6.4
			c-0.5-3.2-3.5-5.3-6.6-4.7c-3.8,0.7-5.8,5-3.9,8.3c0.2,0.4,0.3,0.7,0.1,1.1C139.3,204.3,139.2,204.8,139.1,205.3z"/>
		<path class="st22" d="M146.1,203.2c-1.3,0-3.4-1.1-4.9-3.6c-0.5-0.9-0.4-1.9,0.3-2.6c0.3-0.2,0.6-0.2,0.9-0.1
			c0.1,0,0.1,0.1,0.2,0.2c0.2,0.4,0.4,0.9,0.5,1.3c0.1,0.2-0.1,0.5-0.4,0.9c-0.1,0.1-0.1,0.2,0,0.4c0.6,0.9,1.3,1.6,2.4,2
			c0.2,0.1,0.3,0,0.4-0.1c0.5-0.7,0.6-0.9,0.9-0.7c1.4,0.7,1.5,0.7,1.5,0.8C147.8,202.9,146.7,203.3,146.1,203.2z"/>
	</g>
	<g>
		<path d="M171.8,189.7c5.9,0,10.7,4.8,10.7,10.7s-4.8,10.7-10.7,10.7c-5.9,0-10.7-4.8-10.7-10.7S165.9,189.7,171.8,189.7
			 M171.8,188c-6.8,0-12.4,5.5-12.4,12.4c0,6.8,5.5,12.4,12.4,12.4c6.8,0,12.4-5.5,12.4-12.4C184.1,193.6,178.6,188,171.8,188
			L171.8,188z"/>
		<path d="M171.8,193.1c-4,0-7.3,3.3-7.3,7.3c0,4,3.3,7.3,7.3,7.3s7.3-3.3,7.3-7.3C179.1,196.4,175.8,193.1,171.8,193.1z
			 M176.5,196.7c0.7,0.9,1.2,2.1,1.3,3.4c-1.6-0.3-2.9-0.3-4.1-0.1c-0.2-0.3-0.3-0.7-0.5-1C174.6,198.4,175.7,197.6,176.5,196.7z
			 M175.6,195.8c-0.8,0.9-1.8,1.6-3,2.1c-0.1-0.2-0.3-0.4-0.4-0.6c-0.7-1.2-1.4-2.1-1.9-2.6c0.5-0.1,0.9-0.2,1.4-0.2
			C173.2,194.4,174.6,194.9,175.6,195.8z M169.1,195c0.5,0.5,1.4,1.6,2.3,3.2c-2.1,0.6-4.3,0.7-5.4,0.7
			C166.4,197.2,167.6,195.8,169.1,195z M165.8,200.4c0-0.1,0-0.1,0-0.2c0.2,0,0.3,0,0.5,0c0.9,0,2.2-0.1,3.5-0.3
			c0.8-0.1,1.5-0.3,2.1-0.5c0.1,0.3,0.3,0.6,0.4,0.9c-1.2,0.4-2.2,1-2.9,1.6c-1.1,0.9-1.8,1.8-2.2,2.5
			C166.3,203.3,165.8,201.9,165.8,200.4z M168.2,205.2c0.4-0.6,1-1.5,2.1-2.4c0.8-0.6,1.7-1.1,2.6-1.4c0.5,1.3,0.9,2.8,1.1,4.5
			c-0.7,0.3-1.4,0.4-2.2,0.4C170.5,206.4,169.2,206,168.2,205.2z M175.2,205.4c-0.2-1.5-0.6-2.9-1-4.2c1.1-0.2,2.3-0.1,3.6,0.2
			C177.5,203,176.5,204.4,175.2,205.4z"/>
	</g>
	<g>
		<path d="M227.4,189.7c5.9,0,10.7,4.8,10.7,10.7s-4.8,10.7-10.7,10.7s-10.7-4.8-10.7-10.7S221.5,189.7,227.4,189.7 M227.4,188
			c-6.8,0-12.4,5.5-12.4,12.4c0,6.8,5.5,12.4,12.4,12.4c6.8,0,12.4-5.5,12.4-12.4C239.7,193.6,234.2,188,227.4,188L227.4,188z"/>
		<path d="M222.1,197.8h2.5v8.1h-2.5V197.8z M223.3,193.8c0.8,0,1.5,0.7,1.5,1.5c0,0.8-0.7,1.5-1.5,1.5c-0.8,0-1.5-0.7-1.5-1.5
			C221.9,194.5,222.5,193.8,223.3,193.8"/>
		<path d="M226.2,197.8h2.4v1.1h0c0.3-0.6,1.2-1.3,2.4-1.3c2.5,0,3,1.7,3,3.8v4.4h-2.5V202c0-0.9,0-2.1-1.3-2.1
			c-1.3,0-1.5,1-1.5,2.1v4h-2.5V197.8z"/>
	</g>
	<g>
		<path d="M255.2,189.7c5.9,0,10.7,4.8,10.7,10.7s-4.8,10.7-10.7,10.7c-5.9,0-10.7-4.8-10.7-10.7S249.3,189.7,255.2,189.7
			 M255.2,188c-6.8,0-12.4,5.5-12.4,12.4c0,6.8,5.5,12.4,12.4,12.4c6.8,0,12.4-5.5,12.4-12.4C267.5,193.6,262,188,255.2,188
			L255.2,188z"/>
		<path d="M255.2,194.1c1.8,0,3.3,1.5,3.3,3.3c0,0.7,0,1.4,0,2c0.1,0,0.2,0,0.3,0c0.1,0,0.3,0,0.4-0.1c0.2-0.1,0.4-0.2,0.5-0.2
			c0.1,0,0.3,0.1,0.4,0.2c0.3,0.3,0,0.6-0.5,0.7c-0.4,0.2-1.1,0.3-1.1,0.9c0.2,0.7,0.6,1.4,1.4,2c0.7,0.5,1.2,0.6,1.4,0.6
			c0,0,0.1,0,0.1,0c0,0,0.1,0,0.1,0c0,0.1,0.1,0.5-0.7,0.7c-0.8,0.2-1,0.1-1.1,0.5c-0.2,0.4-0.1,0.6-0.3,0.6c-0.1,0-0.7-0.1-1.3-0.1
			c-0.2,0-0.5,0-0.6,0.1c-0.5,0.2-1.3,1.2-2.4,1.2c-1.2-0.1-1.9-1-2.4-1.2c-0.2-0.1-0.4-0.1-0.6-0.1c-0.5,0-1.1,0.1-1.3,0.1
			c-0.2,0-0.1-0.2-0.3-0.6c-0.2-0.4-0.3-0.3-1.1-0.5c-0.8-0.2-0.7-0.6-0.7-0.7c0,0,0,0,0.1,0c0,0,0.1,0,0.1,0c0.2,0,0.7,0,1.4-0.6
			c0.8-0.6,1.3-1.4,1.4-2c0-0.5-0.7-0.7-1.1-0.9c-0.5-0.2-0.8-0.4-0.5-0.7c0.1-0.1,0.3-0.2,0.4-0.2c0.2,0,0.3,0.1,0.5,0.2
			c0.1,0.1,0.3,0.1,0.4,0.1c0.1,0,0.3,0,0.3,0c0-0.6,0-1.3,0-2c0-1.8,1.5-3.3,3.3-3.3H255.2 M255.2,193.6h-0.1
			c-2.1,0-3.8,1.7-3.8,3.8v1.5c0,0,0,0,0,0c-0.2-0.1-0.5-0.2-0.7-0.2c-0.3,0-0.5,0.1-0.7,0.3c-0.3,0.3-0.3,0.6-0.2,0.7
			c0.1,0.3,0.4,0.6,0.9,0.8c0.1,0,0.1,0,0.2,0.1c0.2,0.1,0.6,0.2,0.6,0.3c-0.1,0.4-0.4,1.1-1.2,1.7c-0.6,0.5-1,0.5-1.1,0.5l-0.1,0
			l-0.1,0c-0.4,0-0.5,0.3-0.5,0.4c-0.1,0.5,0.1,1.1,1,1.3c0.3,0.1,0.5,0.1,0.6,0.1c0.1,0,0.1,0,0.2,0c0,0,0,0,0,0
			c0,0.1,0.1,0.2,0.1,0.3c0,0.2,0.2,0.6,0.7,0.6c0.1,0,0.2,0,0.3,0c0.2,0,0.6-0.1,0.9-0.1c0.3,0,0.4,0,0.4,0.1
			c0.1,0,0.3,0.2,0.4,0.3c0.5,0.4,1.2,0.9,2.2,1l0,0l0,0c1,0,1.7-0.6,2.2-1c0.2-0.1,0.3-0.3,0.4-0.3c0,0,0.1-0.1,0.4-0.1
			c0.3,0,0.7,0,0.9,0.1c0.2,0,0.3,0,0.3,0c0.5,0,0.6-0.4,0.7-0.6c0-0.1,0-0.2,0.1-0.3c0,0,0,0,0,0c0,0,0.1,0,0.2,0
			c0.1,0,0.3-0.1,0.6-0.1c1-0.2,1.2-0.8,1-1.3c0-0.1-0.1-0.4-0.5-0.4l-0.1,0l-0.1,0c-0.1,0-0.5,0-1.1-0.5c-0.8-0.6-1.1-1.2-1.2-1.7
			c0.1-0.1,0.4-0.3,0.6-0.3c0.1,0,0.1,0,0.2-0.1c0.5-0.2,0.8-0.5,0.9-0.8c0-0.1,0-0.4-0.2-0.7c-0.2-0.2-0.5-0.3-0.7-0.3
			c-0.3,0-0.5,0.1-0.7,0.2c0,0,0,0,0,0v-1.5C259,195.3,257.3,193.6,255.2,193.6L255.2,193.6z"/>
		<path d="M255.2,206.7c1.2-0.1,1.9-1,2.4-1.2c0.5-0.2,1.7,0,1.9,0c0.2,0,0.1-0.2,0.3-0.6c0.2-0.4,0.3-0.3,1.1-0.5
			c0.8-0.2,0.7-0.6,0.7-0.7c0-0.1-0.5,0.2-1.6-0.6c-0.8-0.6-1.3-1.4-1.4-2c0-0.5,0.7-0.7,1.1-0.9c0.5-0.2,0.8-0.4,0.5-0.7
			c-0.3-0.3-0.6-0.2-0.9,0c-0.3,0.1-0.6,0.1-0.7,0c0-0.6,0-1.3,0-2c0-1.8-1.5-3.3-3.3-3.3h-0.1c-1.8,0-3.3,1.5-3.3,3.3
			c0,0.7,0,1.4,0,2c-0.1,0-0.4,0.1-0.7,0c-0.3-0.2-0.6-0.3-0.9,0c-0.3,0.3,0,0.6,0.5,0.7c0.4,0.2,1.1,0.3,1.1,0.9
			c-0.2,0.7-0.6,1.4-1.4,2c-1.1,0.8-1.5,0.5-1.6,0.6c0,0.1-0.1,0.5,0.7,0.7c0.8,0.2,1,0.1,1.1,0.5c0.2,0.4,0.1,0.6,0.3,0.6
			c0.2,0,1.4-0.2,1.9,0C253.2,205.7,254,206.6,255.2,206.7z"/>
	</g>
	<g>
		<path d="M199.6,189.6c5.9,0,10.7,4.8,10.7,10.7c0,5.9-4.8,10.7-10.7,10.7c-5.9,0-10.7-4.8-10.7-10.7
			C188.9,194.4,193.7,189.6,199.6,189.6 M199.6,187.9c-6.8,0-12.4,5.5-12.4,12.4c0,6.8,5.5,12.4,12.4,12.4c6.8,0,12.4-5.5,12.4-12.4
			C211.9,193.5,206.4,187.9,199.6,187.9L199.6,187.9z"/>
		<path class="st22" d="M194.4,204.6c-0.5-0.2-0.8-0.5-1-1c-0.4-1.2-0.6-6.2,0.3-7.1c0.3-0.3,0.7-0.5,1.1-0.6
			c2.2-0.2,9.2-0.2,10,0.1c0.5,0.2,0.8,0.5,1,0.9c0.5,1.2,0.5,5.7-0.1,6.9c-0.1,0.3-0.4,0.5-0.7,0.7
			C204.1,205,195.5,205,194.4,204.6z M198,202.3c1.3-0.7,2.7-1.4,4-2.1c-1.4-0.7-2.7-1.4-4-2.1C198,199.5,198,200.9,198,202.3z"/>
	</g>
</g>
<g>
	<g>
		<path class="st12" d="M32.8,219c5.9,0,10.7,4.8,10.7,10.7c0,5.9-4.8,10.7-10.7,10.7c-5.9,0-10.7-4.8-10.7-10.7
			C22.2,223.8,27,219,32.8,219 M32.8,217.3c-6.8,0-12.4,5.5-12.4,12.4s5.5,12.4,12.4,12.4c6.8,0,12.4-5.5,12.4-12.4
			S39.7,217.3,32.8,217.3L32.8,217.3z"/>
		<path class="st23" d="M34.4,225.1c0.4,0,0.9,0,1.3,0c0.1,0,0.1,0,0.2,0v-2.3c-0.2,0-0.5-0.1-0.7-0.1c-0.5,0-0.9,0-1.4,0
			c-0.7,0-1.4,0.2-2,0.6c-0.7,0.5-1,1.2-1.2,2c-0.1,0.3-0.1,0.7-0.1,1c0,0.5,0,1,0,1.6v0.2h-2.2v2.6h2.2v6.6h2.7v-6.6h2.2
			c0.1-0.9,0.2-1.7,0.3-2.6c-0.2,0-0.3,0-0.5,0c-0.6,0-2.1,0-2.1,0s0-1.3,0-1.9C33.4,225.4,33.8,225.1,34.4,225.1z"/>
	</g>
	<g>
		<path class="st12" d="M60.6,219c5.9,0,10.7,4.8,10.7,10.7c0,5.9-4.8,10.7-10.7,10.7c-5.9,0-10.7-4.8-10.7-10.7
			C50,223.8,54.7,219,60.6,219 M60.6,217.3c-6.8,0-12.4,5.5-12.4,12.4s5.5,12.4,12.4,12.4S73,236.5,73,229.7S67.5,217.3,60.6,217.3
			L60.6,217.3z"/>
		<path class="st23" d="M58.4,233.4c-1.5-0.1-2.5-1.1-2.7-2c0.4,0.1,0.8,0.1,1.2,0c0,0,0,0,0,0c-0.8-0.2-1.4-0.6-1.9-1.3
			c-0.3-0.5-0.4-1-0.4-1.5c0.4,0.2,0.8,0.3,1.3,0.4c-0.6-0.4-1-1-1.2-1.8c-0.2-0.7-0.1-1.4,0.3-2.1c1.6,1.9,3.6,2.9,6,3
			c0-0.1,0-0.2,0-0.3c-0.1-0.7,0.1-1.3,0.4-1.9c0.5-0.7,1.1-1.2,2-1.3c1-0.2,1.8,0.1,2.5,0.8c0,0,0.1,0.1,0.2,0
			c0.6-0.1,1.2-0.3,1.7-0.6c0,0,0,0,0,0c0,0,0,0,0,0c-0.2,0.7-0.6,1.2-1.2,1.6c0.6-0.1,1.1-0.2,1.6-0.4c0,0,0,0,0,0
			c-0.1,0.1-0.2,0.3-0.3,0.4c-0.3,0.4-0.7,0.7-1.1,1c0,0,0,0,0,0.1c0,0.4,0,0.9-0.1,1.3c-0.1,0.9-0.4,1.8-0.7,2.6
			c-0.4,0.8-0.9,1.6-1.6,2.3c-1.1,1.1-2.4,1.9-4,2.2c-0.5,0.1-1.1,0.2-1.6,0.2c-1.7,0-3.2-0.4-4.7-1.2c0,0,0,0-0.1,0
			c1,0.1,2,0,2.9-0.4C57.5,234,57.9,233.7,58.4,233.4z"/>
	</g>
	<g>
		<path class="st12" d="M88.4,219c5.9,0,10.7,4.8,10.7,10.7c0,5.9-4.8,10.7-10.7,10.7c-5.9,0-10.7-4.8-10.7-10.7
			C77.7,223.8,82.5,219,88.4,219 M88.4,217.3c-6.8,0-12.4,5.5-12.4,12.4s5.5,12.4,12.4,12.4s12.4-5.5,12.4-12.4
			S95.2,217.3,88.4,217.3L88.4,217.3z"/>
		<path class="st12" d="M95,226.5c-0.1-0.9-0.4-1.6-1.1-2.2c-0.7-0.6-1.5-0.9-2.4-1c-1.5-0.1-5.2-0.1-6.5,0.1
			c-1.5,0.2-2.4,1.1-2.8,2.5c-0.3,1.1-0.3,6.2-0.1,7.4c0.2,1.5,1.1,2.5,2.6,2.9c1,0.3,6.1,0.2,7.2,0c1.5-0.2,2.5-1.1,2.9-2.6
			C95.2,232.4,95.1,227.5,95,226.5z M93.8,233c-0.2,1.1-0.9,1.9-2.1,2c-1.1,0.1-5.8,0.2-6.8-0.1c-0.9-0.3-1.5-0.9-1.6-1.8
			c-0.1-0.9-0.2-5.4,0-6.6c0.2-1.1,0.9-1.8,2.1-2c1.2-0.1,5.3-0.1,6.4,0c1.1,0.2,1.8,0.9,2,2.1C93.9,227.6,94,231.8,93.8,233z
			 M88.5,226.4c-1.9,0-3.4,1.5-3.4,3.4c0,1.9,1.5,3.4,3.4,3.4c1.9,0,3.4-1.5,3.4-3.4C91.9,227.9,90.4,226.4,88.5,226.4z M88.5,231.9
			c-1.2,0-2.2-1-2.2-2.2c0-1.2,1-2.2,2.2-2.2c1.2,0,2.2,1,2.2,2.2C90.7,230.9,89.7,231.9,88.5,231.9z M92.8,226.2
			c0,0.4-0.4,0.8-0.8,0.8c-0.4,0-0.8-0.4-0.8-0.8c0-0.4,0.4-0.8,0.8-0.8C92.5,225.4,92.8,225.8,92.8,226.2z"/>
		<path class="st12" d="M95,226.5c-0.1-0.9-0.4-1.6-1.1-2.2c-0.7-0.6-1.5-0.9-2.4-1c-1.5-0.1-5.2-0.1-6.5,0.1
			c-1.5,0.2-2.4,1.1-2.8,2.5c-0.3,1.1-0.3,6.2-0.1,7.4c0.2,1.5,1.1,2.5,2.6,2.9c1,0.3,6.1,0.2,7.2,0c1.5-0.2,2.5-1.1,2.9-2.6
			C95.2,232.4,95.1,227.5,95,226.5z M93.8,233c-0.2,1.1-0.9,1.9-2.1,2c-1.1,0.1-5.8,0.2-6.8-0.1c-0.9-0.3-1.5-0.9-1.6-1.8
			c-0.1-0.9-0.2-5.4,0-6.6c0.2-1.1,0.9-1.8,2.1-2c1.2-0.1,5.3-0.1,6.4,0c1.1,0.2,1.8,0.9,2,2.1C93.9,227.6,94,231.8,93.8,233z
			 M88.5,226.4c-1.9,0-3.4,1.5-3.4,3.4c0,1.9,1.5,3.4,3.4,3.4c1.9,0,3.4-1.5,3.4-3.4C91.9,227.9,90.4,226.4,88.5,226.4z M88.5,231.9
			c-1.2,0-2.2-1-2.2-2.2c0-1.2,1-2.2,2.2-2.2c1.2,0,2.2,1,2.2,2.2C90.7,230.9,89.7,231.9,88.5,231.9z M92.8,226.2
			c0,0.4-0.4,0.8-0.8,0.8c-0.4,0-0.8-0.4-0.8-0.8c0-0.4,0.4-0.8,0.8-0.8C92.5,225.4,92.8,225.8,92.8,226.2z"/>
	</g>
	<g>
		<path class="st12" d="M116.2,219.3c5.9,0,10.7,4.8,10.7,10.7c0,5.9-4.8,10.7-10.7,10.7c-5.9,0-10.7-4.8-10.7-10.7
			C105.5,224.1,110.3,219.3,116.2,219.3 M116.2,217.6c-6.8,0-12.4,5.5-12.4,12.4c0,6.8,5.5,12.4,12.4,12.4c6.8,0,12.4-5.5,12.4-12.4
			C128.6,223.1,123,217.6,116.2,217.6L116.2,217.6z"/>
		<path class="st23" d="M115.3,232.8c0,0,0,0.1,0,0.1c-0.5,2-0.6,2.5-1.1,3.4c-0.3,0.5-0.5,0.9-0.9,1.3c0,0-0.1,0.1-0.1,0.1
			c-0.1,0-0.1-0.1-0.1-0.1c-0.1-0.6-0.1-1.2-0.1-1.9c0-0.8,0.1-1.1,1.2-5.5c0-0.1,0-0.1,0-0.2c-0.3-0.7-0.3-1.4-0.1-2.1
			c0.5-1.5,2.2-1.6,2.5-0.4c0.2,0.8-0.3,1.8-0.7,3.3c-0.3,1.2,1.1,2.1,2.4,1.2c1.1-0.8,1.6-2.8,1.5-4.2c-0.2-2.8-3.2-3.4-5.2-2.5
			c-2.2,1-2.7,3.8-1.7,5.1c0.1,0.2,0.2,0.3,0.2,0.4c-0.1,0.3-0.1,0.5-0.2,0.8c-0.1,0.2-0.2,0.3-0.4,0.2c-0.4-0.1-0.7-0.4-0.9-0.7
			c-0.9-1.1-1.1-3.2,0-4.9c1.3-2,3.6-2.8,5.7-2.5c2.5,0.3,4.2,2,4.5,4c0.1,0.9,0,3.1-1.2,4.7c-1.4,1.8-3.8,1.9-4.9,0.8
			C115.5,233,115.4,232.9,115.3,232.8z"/>
	</g>
	<g>
		<path class="st12" d="M144,219.3c5.9,0,10.7,4.8,10.7,10.7c0,5.9-4.8,10.7-10.7,10.7c-5.9,0-10.7-4.8-10.7-10.7
			C133.3,224.1,138.1,219.3,144,219.3 M144,217.6c-6.8,0-12.4,5.5-12.4,12.4c0,6.8,5.5,12.4,12.4,12.4c6.8,0,12.4-5.5,12.4-12.4
			C156.4,223.1,150.8,217.6,144,217.6L144,217.6z"/>
		<path class="st23" d="M137.5,236.5c0.1-0.3,0.1-0.6,0.2-0.8c0.2-0.8,0.5-1.6,0.7-2.5c0-0.1,0-0.3,0-0.4c-2.1-4,0.1-8.8,4.4-9.8
			c4-0.9,7.6,1.8,8.2,5.3c0.7,3.7-1.8,7.3-5.5,8c-1.5,0.3-2.9,0-4.2-0.6c-0.1-0.1-0.3-0.1-0.4,0C139,236.1,137.8,236.4,137.5,236.5z
			 M139.1,234.9c0.7-0.2,1.3-0.3,1.9-0.5c0.2,0,0.3,0,0.5,0.1c1.2,0.7,2.4,0.9,3.8,0.7c3.1-0.5,5.2-3.4,4.7-6.4
			c-0.5-3.2-3.5-5.3-6.6-4.7c-3.8,0.7-5.8,5-3.9,8.3c0.2,0.4,0.3,0.7,0.1,1.1C139.3,233.9,139.2,234.4,139.1,234.9z"/>
		<path class="st23" d="M146.1,232.9c-1.3,0-3.4-1.1-4.9-3.6c-0.5-0.9-0.4-1.9,0.3-2.6c0.3-0.2,0.6-0.2,0.9-0.1
			c0.1,0,0.1,0.1,0.2,0.2c0.2,0.4,0.4,0.9,0.5,1.3c0.1,0.2-0.1,0.5-0.4,0.9c-0.1,0.1-0.1,0.2,0,0.4c0.6,0.9,1.3,1.6,2.4,2
			c0.2,0.1,0.3,0,0.4-0.1c0.5-0.7,0.6-0.9,0.9-0.7c1.4,0.7,1.5,0.7,1.5,0.8C147.8,232.5,146.7,232.9,146.1,232.9z"/>
	</g>
	<g>
		<path class="st12" d="M171.8,219.4c5.9,0,10.7,4.8,10.7,10.7s-4.8,10.7-10.7,10.7c-5.9,0-10.7-4.8-10.7-10.7
			S165.9,219.4,171.8,219.4 M171.8,217.7c-6.8,0-12.4,5.5-12.4,12.4c0,6.8,5.5,12.4,12.4,12.4c6.8,0,12.4-5.5,12.4-12.4
			C184.1,223.2,178.6,217.7,171.8,217.7L171.8,217.7z"/>
		<path class="st12" d="M171.8,222.7c-4,0-7.3,3.3-7.3,7.3c0,4,3.3,7.3,7.3,7.3s7.3-3.3,7.3-7.3C179.1,226,175.8,222.7,171.8,222.7z
			 M176.5,226.3c0.7,0.9,1.2,2.1,1.3,3.4c-1.6-0.3-2.9-0.3-4.1-0.1c-0.2-0.3-0.3-0.7-0.5-1C174.6,228,175.7,227.3,176.5,226.3z
			 M175.6,225.4c-0.8,0.9-1.8,1.6-3,2.1c-0.1-0.2-0.3-0.4-0.4-0.6c-0.7-1.2-1.4-2.1-1.9-2.6c0.5-0.1,0.9-0.2,1.4-0.2
			C173.2,224,174.6,224.5,175.6,225.4z M169.1,224.7c0.5,0.5,1.4,1.6,2.3,3.2c-2.1,0.6-4.3,0.7-5.4,0.7
			C166.4,226.9,167.6,225.4,169.1,224.7z M165.8,230c0-0.1,0-0.1,0-0.2c0.2,0,0.3,0,0.5,0c0.9,0,2.2-0.1,3.5-0.3
			c0.8-0.1,1.5-0.3,2.1-0.5c0.1,0.3,0.3,0.6,0.4,0.9c-1.2,0.4-2.2,1-2.9,1.6c-1.1,0.9-1.8,1.8-2.2,2.5
			C166.3,232.9,165.8,231.6,165.8,230z M168.2,234.9c0.4-0.6,1-1.5,2.1-2.4c0.8-0.6,1.7-1.1,2.6-1.4c0.5,1.3,0.9,2.8,1.1,4.5
			c-0.7,0.3-1.4,0.4-2.2,0.4C170.5,236,169.2,235.6,168.2,234.9z M175.2,235c-0.2-1.5-0.6-2.9-1-4.2c1.1-0.2,2.3-0.1,3.6,0.2
			C177.5,232.6,176.5,234.1,175.2,235z"/>
	</g>
	<g>
		<path class="st12" d="M227.4,219.4c5.9,0,10.7,4.8,10.7,10.7s-4.8,10.7-10.7,10.7s-10.7-4.8-10.7-10.7S221.5,219.4,227.4,219.4
			 M227.4,217.7c-6.8,0-12.4,5.5-12.4,12.4c0,6.8,5.5,12.4,12.4,12.4c6.8,0,12.4-5.5,12.4-12.4C239.7,223.2,234.2,217.7,227.4,217.7
			L227.4,217.7z"/>
		<path class="st12" d="M222.1,227.5h2.5v8.1h-2.5V227.5z M223.3,223.4c0.8,0,1.5,0.7,1.5,1.5c0,0.8-0.7,1.5-1.5,1.5
			c-0.8,0-1.5-0.7-1.5-1.5C221.9,224.1,222.5,223.4,223.3,223.4"/>
		<path class="st12" d="M226.2,227.5h2.4v1.1h0c0.3-0.6,1.2-1.3,2.4-1.3c2.5,0,3,1.7,3,3.8v4.4h-2.5v-3.9c0-0.9,0-2.1-1.3-2.1
			c-1.3,0-1.5,1-1.5,2.1v4h-2.5V227.5z"/>
	</g>
	<g>
		<path class="st12" d="M255.2,219.4c5.9,0,10.7,4.8,10.7,10.7s-4.8,10.7-10.7,10.7c-5.9,0-10.7-4.8-10.7-10.7
			S249.3,219.4,255.2,219.4 M255.2,217.7c-6.8,0-12.4,5.5-12.4,12.4c0,6.8,5.5,12.4,12.4,12.4c6.8,0,12.4-5.5,12.4-12.4
			C267.5,223.2,262,217.7,255.2,217.7L255.2,217.7z"/>
		<path class="st12" d="M255.2,223.7c1.8,0,3.3,1.5,3.3,3.3c0,0.7,0,1.4,0,2c0.1,0,0.2,0,0.3,0c0.1,0,0.3,0,0.4-0.1
			c0.2-0.1,0.4-0.2,0.5-0.2c0.1,0,0.3,0.1,0.4,0.2c0.3,0.3,0,0.6-0.5,0.7c-0.4,0.2-1.1,0.3-1.1,0.9c0.2,0.7,0.6,1.4,1.4,2
			c0.7,0.5,1.2,0.6,1.4,0.6c0,0,0.1,0,0.1,0c0,0,0.1,0,0.1,0c0,0.1,0.1,0.5-0.7,0.7c-0.8,0.2-1,0.1-1.1,0.5
			c-0.2,0.4-0.1,0.6-0.3,0.6c-0.1,0-0.7-0.1-1.3-0.1c-0.2,0-0.5,0-0.6,0.1c-0.5,0.2-1.3,1.2-2.4,1.2c-1.2-0.1-1.9-1-2.4-1.2
			c-0.2-0.1-0.4-0.1-0.6-0.1c-0.5,0-1.1,0.1-1.3,0.1c-0.2,0-0.1-0.2-0.3-0.6c-0.2-0.4-0.3-0.3-1.1-0.5c-0.8-0.2-0.7-0.6-0.7-0.7
			c0,0,0,0,0.1,0c0,0,0.1,0,0.1,0c0.2,0,0.7,0,1.4-0.6c0.8-0.6,1.3-1.4,1.4-2c0-0.5-0.7-0.7-1.1-0.9c-0.5-0.2-0.8-0.4-0.5-0.7
			c0.1-0.1,0.3-0.2,0.4-0.2c0.2,0,0.3,0.1,0.5,0.2c0.1,0.1,0.3,0.1,0.4,0.1c0.1,0,0.3,0,0.3,0c0-0.6,0-1.3,0-2
			c0-1.8,1.5-3.3,3.3-3.3H255.2 M255.2,223.3h-0.1c-2.1,0-3.8,1.7-3.8,3.8v1.5c0,0,0,0,0,0c-0.2-0.1-0.5-0.2-0.7-0.2
			c-0.3,0-0.5,0.1-0.7,0.3c-0.3,0.3-0.3,0.6-0.2,0.7c0.1,0.3,0.4,0.6,0.9,0.8c0.1,0,0.1,0,0.2,0.1c0.2,0.1,0.6,0.2,0.6,0.3
			c-0.1,0.4-0.4,1.1-1.2,1.7c-0.6,0.5-1,0.5-1.1,0.5l-0.1,0l-0.1,0c-0.4,0-0.5,0.3-0.5,0.4c-0.1,0.5,0.1,1.1,1,1.3
			c0.3,0.1,0.5,0.1,0.6,0.1c0.1,0,0.1,0,0.2,0c0,0,0,0,0,0c0,0.1,0.1,0.2,0.1,0.3c0,0.2,0.2,0.6,0.7,0.6c0.1,0,0.2,0,0.3,0
			c0.2,0,0.6-0.1,0.9-0.1c0.3,0,0.4,0,0.4,0.1c0.1,0,0.3,0.2,0.4,0.3c0.5,0.4,1.2,0.9,2.2,1l0,0l0,0c1,0,1.7-0.6,2.2-1
			c0.2-0.1,0.3-0.3,0.4-0.3c0,0,0.1-0.1,0.4-0.1c0.3,0,0.7,0,0.9,0.1c0.2,0,0.3,0,0.3,0c0.5,0,0.6-0.4,0.7-0.6c0-0.1,0-0.2,0.1-0.3
			c0,0,0,0,0,0c0,0,0.1,0,0.2,0c0.1,0,0.3-0.1,0.6-0.1c1-0.2,1.2-0.8,1-1.3c0-0.1-0.1-0.4-0.5-0.4l-0.1,0l-0.1,0
			c-0.1,0-0.5,0-1.1-0.5c-0.8-0.6-1.1-1.2-1.2-1.7c0.1-0.1,0.4-0.3,0.6-0.3c0.1,0,0.1,0,0.2-0.1c0.5-0.2,0.8-0.5,0.9-0.8
			c0-0.1,0-0.4-0.2-0.7c-0.2-0.2-0.5-0.3-0.7-0.3c-0.3,0-0.5,0.1-0.7,0.2c0,0,0,0,0,0v-1.5C259,225,257.3,223.3,255.2,223.3
			L255.2,223.3z"/>
		<path class="st12" d="M255.2,236.3c1.2-0.1,1.9-1,2.4-1.2c0.5-0.2,1.7,0,1.9,0c0.2,0,0.1-0.2,0.3-0.6c0.2-0.4,0.3-0.3,1.1-0.5
			c0.8-0.2,0.7-0.6,0.7-0.7c0-0.1-0.5,0.2-1.6-0.6c-0.8-0.6-1.3-1.4-1.4-2c0-0.5,0.7-0.7,1.1-0.9c0.5-0.2,0.8-0.4,0.5-0.7
			c-0.3-0.3-0.6-0.2-0.9,0c-0.3,0.1-0.6,0.1-0.7,0c0-0.6,0-1.3,0-2c0-1.8-1.5-3.3-3.3-3.3h-0.1c-1.8,0-3.3,1.5-3.3,3.3
			c0,0.7,0,1.4,0,2c-0.1,0-0.4,0.1-0.7,0c-0.3-0.2-0.6-0.3-0.9,0c-0.3,0.3,0,0.6,0.5,0.7c0.4,0.2,1.1,0.3,1.1,0.9
			c-0.2,0.7-0.6,1.4-1.4,2c-1.1,0.8-1.5,0.5-1.6,0.6c0,0.1-0.1,0.5,0.7,0.7c0.8,0.2,1,0.1,1.1,0.5c0.2,0.4,0.1,0.6,0.3,0.6
			c0.2,0,1.4-0.2,1.9,0C253.2,235.3,254,236.3,255.2,236.3z"/>
	</g>
	<g>
		<path class="st12" d="M199.6,219.3c5.9,0,10.7,4.8,10.7,10.7c0,5.9-4.8,10.7-10.7,10.7c-5.9,0-10.7-4.8-10.7-10.7
			C188.9,224.1,193.7,219.3,199.6,219.3 M199.6,217.6c-6.8,0-12.4,5.5-12.4,12.4c0,6.8,5.5,12.4,12.4,12.4c6.8,0,12.4-5.5,12.4-12.4
			C211.9,223.1,206.4,217.6,199.6,217.6L199.6,217.6z"/>
		<path class="st23" d="M194.4,234.2c-0.5-0.2-0.8-0.5-1-1c-0.4-1.2-0.6-6.2,0.3-7.1c0.3-0.3,0.7-0.5,1.1-0.6
			c2.2-0.2,9.2-0.2,10,0.1c0.5,0.2,0.8,0.5,1,0.9c0.5,1.2,0.5,5.7-0.1,6.9c-0.1,0.3-0.4,0.5-0.7,0.7
			C204.1,234.6,195.5,234.6,194.4,234.2z M198,231.9c1.3-0.7,2.7-1.4,4-2.1c-1.4-0.7-2.7-1.4-4-2.1C198,229.1,198,230.5,198,231.9z"
			/>
	</g>
</g>
<path class="st13" d="M32.8,248.7c5.9,0,10.7,4.8,10.7,10.7c0,5.9-4.8,10.7-10.7,10.7c-5.9,0-10.7-4.8-10.7-10.7
	C22.2,253.4,27,248.7,32.8,248.7 M32.8,247c-6.8,0-12.4,5.5-12.4,12.4c0,6.8,5.5,12.4,12.4,12.4c6.8,0,12.4-5.5,12.4-12.4
	C45.2,252.5,39.7,247,32.8,247L32.8,247z"/>
<path class="st24" d="M34.4,254.7c0.4,0,0.9,0,1.3,0c0.1,0,0.1,0,0.2,0v-2.3c-0.2,0-0.5-0.1-0.7-0.1c-0.5,0-0.9,0-1.4,0
	c-0.7,0-1.4,0.2-2,0.6c-0.7,0.5-1,1.2-1.2,2c-0.1,0.3-0.1,0.7-0.1,1c0,0.5,0,1,0,1.6v0.2h-2.2v2.6h2.2v6.6h2.7v-6.6h2.2
	c0.1-0.9,0.2-1.7,0.3-2.6c-0.2,0-0.3,0-0.5,0c-0.6,0-2.1,0-2.1,0s0-1.3,0-1.9C33.4,255,33.8,254.8,34.4,254.7z"/>
<path class="st13" d="M60.6,248.7c5.9,0,10.7,4.8,10.7,10.7c0,5.9-4.8,10.7-10.7,10.7c-5.9,0-10.7-4.8-10.7-10.7
	C50,253.4,54.7,248.7,60.6,248.7 M60.6,247c-6.8,0-12.4,5.5-12.4,12.4c0,6.8,5.5,12.4,12.4,12.4S73,266.2,73,259.3
	C73,252.5,67.5,247,60.6,247L60.6,247z"/>
<path class="st24" d="M58.4,263c-1.5-0.1-2.5-1.1-2.7-2c0.4,0.1,0.8,0.1,1.2,0c0,0,0,0,0,0c-0.8-0.2-1.4-0.6-1.9-1.3
	c-0.3-0.5-0.4-1-0.4-1.5c0.4,0.2,0.8,0.3,1.3,0.4c-0.6-0.4-1-1-1.2-1.8c-0.2-0.7-0.1-1.4,0.3-2.1c1.6,1.9,3.6,2.9,6,3
	c0-0.1,0-0.2,0-0.3c-0.1-0.7,0.1-1.3,0.4-1.9c0.5-0.7,1.1-1.2,2-1.3c1-0.2,1.8,0.1,2.5,0.8c0,0,0.1,0.1,0.2,0
	c0.6-0.1,1.2-0.3,1.7-0.7c0,0,0,0,0,0c0,0,0,0,0,0c-0.2,0.7-0.6,1.2-1.2,1.6c0.6-0.1,1.1-0.2,1.6-0.4c0,0,0,0,0,0
	c-0.1,0.1-0.2,0.3-0.3,0.4c-0.3,0.4-0.7,0.7-1.1,1c0,0,0,0,0,0.1c0,0.4,0,0.9-0.1,1.3c-0.1,0.9-0.4,1.8-0.7,2.6
	c-0.4,0.8-0.9,1.6-1.6,2.3c-1.1,1.1-2.4,1.9-4,2.2c-0.5,0.1-1.1,0.2-1.6,0.2c-1.7,0-3.2-0.4-4.7-1.2c0,0,0,0-0.1,0
	c1,0.1,2,0,2.9-0.4C57.5,263.6,57.9,263.3,58.4,263z"/>
<path class="st13" d="M88.4,248.7c5.9,0,10.7,4.8,10.7,10.7c0,5.9-4.8,10.7-10.7,10.7c-5.9,0-10.7-4.8-10.7-10.7
	C77.7,253.4,82.5,248.7,88.4,248.7 M88.4,247c-6.8,0-12.4,5.5-12.4,12.4c0,6.8,5.5,12.4,12.4,12.4s12.4-5.5,12.4-12.4
	C100.8,252.5,95.2,247,88.4,247L88.4,247z"/>
<path class="st13" d="M95,256.1c-0.1-0.9-0.4-1.6-1.1-2.2c-0.7-0.6-1.5-0.9-2.4-1c-1.5-0.1-5.2-0.1-6.5,0.1
	c-1.5,0.2-2.4,1.1-2.8,2.5c-0.3,1.1-0.3,6.2-0.1,7.4c0.2,1.5,1.1,2.5,2.6,2.9c1,0.3,6.1,0.2,7.2,0c1.5-0.2,2.5-1.1,2.9-2.6
	C95.2,262,95.1,257.1,95,256.1z M93.8,262.6c-0.2,1.1-0.9,1.9-2.1,2c-1.1,0.1-5.8,0.2-6.8-0.1c-0.9-0.3-1.5-0.9-1.6-1.8
	c-0.1-0.9-0.2-5.4,0-6.6c0.2-1.1,0.9-1.8,2.1-2c1.2-0.1,5.3-0.1,6.4,0c1.1,0.2,1.8,0.9,2,2.1C93.9,257.3,94,261.5,93.8,262.6z
	 M88.5,256c-1.9,0-3.4,1.5-3.4,3.4c0,1.9,1.5,3.4,3.4,3.4c1.9,0,3.4-1.5,3.4-3.4C91.9,257.5,90.4,256,88.5,256z M88.5,261.5
	c-1.2,0-2.2-1-2.2-2.2c0-1.2,1-2.2,2.2-2.2c1.2,0,2.2,1,2.2,2.2C90.7,260.6,89.7,261.5,88.5,261.5z M92.8,255.9
	c0,0.4-0.4,0.8-0.8,0.8c-0.4,0-0.8-0.4-0.8-0.8c0-0.4,0.4-0.8,0.8-0.8C92.5,255.1,92.8,255.4,92.8,255.9z"/>
<path class="st13" d="M95,256.1c-0.1-0.9-0.4-1.6-1.1-2.2c-0.7-0.6-1.5-0.9-2.4-1c-1.5-0.1-5.2-0.1-6.5,0.1
	c-1.5,0.2-2.4,1.1-2.8,2.5c-0.3,1.1-0.3,6.2-0.1,7.4c0.2,1.5,1.1,2.5,2.6,2.9c1,0.3,6.1,0.2,7.2,0c1.5-0.2,2.5-1.1,2.9-2.6
	C95.2,262,95.1,257.1,95,256.1z M93.8,262.6c-0.2,1.1-0.9,1.9-2.1,2c-1.1,0.1-5.8,0.2-6.8-0.1c-0.9-0.3-1.5-0.9-1.6-1.8
	c-0.1-0.9-0.2-5.4,0-6.6c0.2-1.1,0.9-1.8,2.1-2c1.2-0.1,5.3-0.1,6.4,0c1.1,0.2,1.8,0.9,2,2.1C93.9,257.3,94,261.5,93.8,262.6z
	 M88.5,256c-1.9,0-3.4,1.5-3.4,3.4c0,1.9,1.5,3.4,3.4,3.4c1.9,0,3.4-1.5,3.4-3.4C91.9,257.5,90.4,256,88.5,256z M88.5,261.5
	c-1.2,0-2.2-1-2.2-2.2c0-1.2,1-2.2,2.2-2.2c1.2,0,2.2,1,2.2,2.2C90.7,260.6,89.7,261.5,88.5,261.5z M92.8,255.9
	c0,0.4-0.4,0.8-0.8,0.8c-0.4,0-0.8-0.4-0.8-0.8c0-0.4,0.4-0.8,0.8-0.8C92.5,255.1,92.8,255.4,92.8,255.9z"/>
<path class="st13" d="M116.2,248.9c5.9,0,10.7,4.8,10.7,10.7c0,5.9-4.8,10.7-10.7,10.7c-5.9,0-10.7-4.8-10.7-10.7
	C105.5,253.7,110.3,248.9,116.2,248.9 M116.2,247.2c-6.8,0-12.4,5.5-12.4,12.4c0,6.8,5.5,12.4,12.4,12.4c6.8,0,12.4-5.5,12.4-12.4
	C128.6,252.7,123,247.2,116.2,247.2L116.2,247.2z"/>
<path class="st24" d="M115.3,262.4c0,0,0,0.1,0,0.1c-0.5,2-0.6,2.5-1.1,3.4c-0.3,0.5-0.5,0.9-0.9,1.3c0,0-0.1,0.1-0.1,0.1
	c-0.1,0-0.1-0.1-0.1-0.1c-0.1-0.6-0.1-1.2-0.1-1.9c0-0.8,0.1-1.1,1.2-5.5c0-0.1,0-0.1,0-0.2c-0.3-0.7-0.3-1.4-0.1-2.1
	c0.5-1.5,2.2-1.6,2.5-0.4c0.2,0.8-0.3,1.8-0.7,3.3c-0.3,1.2,1.1,2.1,2.4,1.2c1.1-0.8,1.6-2.8,1.5-4.2c-0.2-2.8-3.2-3.4-5.2-2.5
	c-2.2,1-2.7,3.8-1.7,5.1c0.1,0.2,0.2,0.3,0.2,0.4c-0.1,0.3-0.1,0.5-0.2,0.8c-0.1,0.2-0.2,0.3-0.4,0.2c-0.4-0.1-0.7-0.4-0.9-0.7
	c-0.9-1.1-1.1-3.2,0-4.9c1.3-2,3.6-2.8,5.7-2.5c2.5,0.3,4.2,2,4.5,4c0.1,0.9,0,3.1-1.2,4.7c-1.4,1.8-3.8,1.9-4.9,0.8
	C115.5,262.6,115.4,262.5,115.3,262.4z"/>
<path class="st13" d="M144,248.9c5.9,0,10.7,4.8,10.7,10.7c0,5.9-4.8,10.7-10.7,10.7c-5.9,0-10.7-4.8-10.7-10.7
	C133.3,253.7,138.1,248.9,144,248.9 M144,247.2c-6.8,0-12.4,5.5-12.4,12.4c0,6.8,5.5,12.4,12.4,12.4c6.8,0,12.4-5.5,12.4-12.4
	C156.4,252.7,150.8,247.2,144,247.2L144,247.2z"/>
<path class="st24" d="M137.5,266.1c0.1-0.3,0.1-0.6,0.2-0.8c0.2-0.8,0.5-1.6,0.7-2.5c0-0.1,0-0.3,0-0.4c-2.1-4,0.1-8.8,4.4-9.8
	c4-0.9,7.6,1.8,8.2,5.3c0.7,3.7-1.8,7.3-5.5,8c-1.5,0.3-2.9,0-4.2-0.6c-0.1-0.1-0.3-0.1-0.4,0C139,265.7,137.8,266.1,137.5,266.1z
	 M139.1,264.6c0.7-0.2,1.3-0.3,1.9-0.5c0.2,0,0.3,0,0.5,0.1c1.2,0.7,2.4,0.9,3.8,0.7c3.1-0.5,5.2-3.4,4.7-6.4
	c-0.5-3.2-3.5-5.3-6.6-4.7c-3.8,0.7-5.8,5-3.9,8.3c0.2,0.4,0.3,0.7,0.1,1.1C139.3,263.5,139.2,264,139.1,264.6z"/>
<path class="st24" d="M146.1,262.5c-1.3,0-3.4-1.1-4.9-3.6c-0.5-0.9-0.4-1.9,0.3-2.6c0.3-0.2,0.6-0.2,0.9-0.1c0.1,0,0.1,0.1,0.2,0.2
	c0.2,0.4,0.4,0.9,0.5,1.3c0.1,0.2-0.1,0.5-0.4,0.9c-0.1,0.1-0.1,0.2,0,0.4c0.6,0.9,1.3,1.6,2.4,2c0.2,0.1,0.3,0,0.4-0.1
	c0.5-0.7,0.6-0.9,0.9-0.7c1.4,0.7,1.5,0.7,1.5,0.8C147.8,262.1,146.7,262.5,146.1,262.5z"/>
<path class="st13" d="M171.8,249c5.9,0,10.7,4.8,10.7,10.7c0,5.9-4.8,10.7-10.7,10.7c-5.9,0-10.7-4.8-10.7-10.7
	C161.1,253.8,165.9,249,171.8,249 M171.8,247.3c-6.8,0-12.4,5.5-12.4,12.4c0,6.8,5.5,12.4,12.4,12.4c6.8,0,12.4-5.5,12.4-12.4
	C184.1,252.8,178.6,247.3,171.8,247.3L171.8,247.3z"/>
<path class="st13" d="M171.8,252.4c-4,0-7.3,3.3-7.3,7.3c0,4,3.3,7.3,7.3,7.3s7.3-3.3,7.3-7.3C179.1,255.6,175.8,252.4,171.8,252.4z
	 M176.5,255.9c0.7,0.9,1.2,2.1,1.3,3.4c-1.6-0.3-2.9-0.3-4.1-0.1c-0.2-0.3-0.3-0.7-0.5-1C174.6,257.7,175.7,256.9,176.5,255.9z
	 M175.6,255c-0.8,0.9-1.8,1.6-3,2.1c-0.1-0.2-0.3-0.4-0.4-0.6c-0.7-1.2-1.4-2.1-1.9-2.6c0.5-0.1,0.9-0.2,1.4-0.2
	C173.2,253.7,174.6,254.2,175.6,255z M169.1,254.3c0.5,0.5,1.4,1.6,2.3,3.2c-2.1,0.6-4.3,0.7-5.4,0.7
	C166.4,256.5,167.6,255.1,169.1,254.3z M165.8,259.7c0-0.1,0-0.1,0-0.2c0.2,0,0.3,0,0.5,0c0.9,0,2.2-0.1,3.5-0.3
	c0.8-0.1,1.5-0.3,2.1-0.5c0.1,0.3,0.3,0.6,0.4,0.9c-1.2,0.4-2.2,1-2.9,1.6c-1.1,0.9-1.8,1.8-2.2,2.5
	C166.3,262.6,165.8,261.2,165.8,259.7z M168.2,264.5c0.4-0.6,1-1.5,2.1-2.4c0.8-0.6,1.7-1.1,2.6-1.4c0.5,1.3,0.9,2.8,1.1,4.5
	c-0.7,0.3-1.4,0.4-2.2,0.4C170.5,265.7,169.2,265.2,168.2,264.5z M175.2,264.6c-0.2-1.5-0.6-2.9-1-4.2c1.1-0.2,2.3-0.1,3.6,0.2
	C177.5,262.3,176.5,263.7,175.2,264.6z"/>
<path class="st13" d="M227.4,249c5.9,0,10.7,4.8,10.7,10.7c0,5.9-4.8,10.7-10.7,10.7s-10.7-4.8-10.7-10.7
	C216.7,253.8,221.5,249,227.4,249 M227.4,247.3c-6.8,0-12.4,5.5-12.4,12.4c0,6.8,5.5,12.4,12.4,12.4c6.8,0,12.4-5.5,12.4-12.4
	C239.7,252.8,234.2,247.3,227.4,247.3L227.4,247.3z"/>
<path class="st13" d="M222.1,257.1h2.5v8.1h-2.5V257.1z M223.3,253.1c0.8,0,1.5,0.7,1.5,1.5c0,0.8-0.7,1.5-1.5,1.5
	c-0.8,0-1.5-0.7-1.5-1.5C221.9,253.7,222.5,253.1,223.3,253.1"/>
<path class="st13" d="M226.2,257.1h2.4v1.1h0c0.3-0.6,1.2-1.3,2.4-1.3c2.5,0,3,1.7,3,3.8v4.4h-2.5v-3.9c0-0.9,0-2.1-1.3-2.1
	c-1.3,0-1.5,1-1.5,2.1v4h-2.5V257.1z"/>
<path class="st13" d="M255.2,249c5.9,0,10.7,4.8,10.7,10.7c0,5.9-4.8,10.7-10.7,10.7c-5.9,0-10.7-4.8-10.7-10.7
	C244.5,253.8,249.3,249,255.2,249 M255.2,247.3c-6.8,0-12.4,5.5-12.4,12.4c0,6.8,5.5,12.4,12.4,12.4c6.8,0,12.4-5.5,12.4-12.4
	C267.5,252.8,262,247.3,255.2,247.3L255.2,247.3z"/>
<path class="st13" d="M255.2,253.4c1.8,0,3.3,1.5,3.3,3.3c0,0.7,0,1.4,0,2c0.1,0,0.2,0,0.3,0c0.1,0,0.3,0,0.4-0.1
	c0.2-0.1,0.4-0.2,0.5-0.2c0.1,0,0.3,0.1,0.4,0.2c0.3,0.3,0,0.6-0.5,0.7c-0.4,0.2-1.1,0.3-1.1,0.9c0.2,0.7,0.6,1.4,1.4,2
	c0.7,0.5,1.2,0.6,1.4,0.6c0,0,0.1,0,0.1,0c0,0,0.1,0,0.1,0c0,0.1,0.1,0.5-0.7,0.7c-0.8,0.2-1,0.1-1.1,0.5c-0.2,0.4-0.1,0.6-0.3,0.6
	c-0.1,0-0.7-0.1-1.3-0.1c-0.2,0-0.5,0-0.6,0.1c-0.5,0.2-1.3,1.2-2.4,1.2c-1.2-0.1-1.9-1-2.4-1.2c-0.2-0.1-0.4-0.1-0.6-0.1
	c-0.5,0-1.1,0.1-1.3,0.1c-0.2,0-0.1-0.2-0.3-0.6c-0.2-0.4-0.3-0.3-1.1-0.5c-0.8-0.2-0.7-0.6-0.7-0.7c0,0,0,0,0.1,0c0,0,0.1,0,0.1,0
	c0.2,0,0.7,0,1.4-0.6c0.8-0.6,1.3-1.4,1.4-2c0-0.5-0.7-0.7-1.1-0.9c-0.5-0.2-0.8-0.4-0.5-0.7c0.1-0.1,0.3-0.2,0.4-0.2
	c0.2,0,0.3,0.1,0.5,0.2c0.1,0.1,0.3,0.1,0.4,0.1c0.1,0,0.3,0,0.3,0c0-0.6,0-1.3,0-2c0-1.8,1.5-3.3,3.3-3.3H255.2 M255.2,252.9h-0.1
	c-2.1,0-3.8,1.7-3.8,3.8v1.5c0,0,0,0,0,0c-0.2-0.1-0.5-0.2-0.7-0.2c-0.3,0-0.5,0.1-0.7,0.3c-0.3,0.3-0.3,0.6-0.2,0.7
	c0.1,0.3,0.4,0.6,0.9,0.8c0.1,0,0.1,0,0.2,0.1c0.2,0.1,0.6,0.2,0.6,0.3c-0.1,0.4-0.4,1.1-1.2,1.7c-0.6,0.5-1,0.5-1.1,0.5l-0.1,0
	l-0.1,0c-0.4,0-0.5,0.3-0.5,0.4c-0.1,0.5,0.1,1.1,1,1.3c0.3,0.1,0.5,0.1,0.6,0.1c0.1,0,0.1,0,0.2,0c0,0,0,0,0,0
	c0,0.1,0.1,0.2,0.1,0.3c0,0.2,0.2,0.6,0.7,0.6c0.1,0,0.2,0,0.3,0c0.2,0,0.6-0.1,0.9-0.1c0.3,0,0.4,0,0.4,0.1c0.1,0,0.3,0.2,0.4,0.3
	c0.5,0.4,1.2,0.9,2.2,1l0,0l0,0c1,0,1.7-0.6,2.2-1c0.2-0.1,0.3-0.3,0.4-0.3c0,0,0.1-0.1,0.4-0.1c0.3,0,0.7,0,0.9,0.1
	c0.2,0,0.3,0,0.3,0c0.5,0,0.6-0.4,0.7-0.6c0-0.1,0-0.2,0.1-0.3c0,0,0,0,0,0c0,0,0.1,0,0.2,0c0.1,0,0.3-0.1,0.6-0.1
	c1-0.2,1.2-0.8,1-1.3c0-0.1-0.1-0.4-0.5-0.4l-0.1,0l-0.1,0c-0.1,0-0.5,0-1.1-0.5c-0.8-0.6-1.1-1.2-1.2-1.7c0.1-0.1,0.4-0.3,0.6-0.3
	c0.1,0,0.1,0,0.2-0.1c0.5-0.2,0.8-0.5,0.9-0.8c0-0.1,0-0.4-0.2-0.7c-0.2-0.2-0.5-0.3-0.7-0.3c-0.3,0-0.5,0.1-0.7,0.2c0,0,0,0,0,0
	v-1.5C259,254.6,257.3,252.9,255.2,252.9L255.2,252.9z"/>
<path class="st13" d="M255.2,266c1.2-0.1,1.9-1,2.4-1.2c0.5-0.2,1.7,0,1.9,0c0.2,0,0.1-0.2,0.3-0.6c0.2-0.4,0.3-0.3,1.1-0.5
	c0.8-0.2,0.7-0.6,0.7-0.7c0-0.1-0.5,0.2-1.6-0.6c-0.8-0.6-1.3-1.4-1.4-2c0-0.5,0.7-0.7,1.1-0.9c0.5-0.2,0.8-0.4,0.5-0.7
	c-0.3-0.3-0.6-0.2-0.9,0c-0.3,0.1-0.6,0.1-0.7,0c0-0.6,0-1.3,0-2c0-1.8-1.5-3.3-3.3-3.3h-0.1c-1.8,0-3.3,1.5-3.3,3.3
	c0,0.7,0,1.4,0,2c-0.1,0-0.4,0.1-0.7,0c-0.3-0.2-0.6-0.3-0.9,0c-0.3,0.3,0,0.6,0.5,0.7c0.4,0.2,1.1,0.3,1.1,0.9
	c-0.2,0.7-0.6,1.4-1.4,2c-1.1,0.8-1.5,0.5-1.6,0.6c0,0.1-0.1,0.5,0.7,0.7c0.8,0.2,1,0.1,1.1,0.5c0.2,0.4,0.1,0.6,0.3,0.6
	c0.2,0,1.4-0.2,1.9,0C253.2,265,254,265.9,255.2,266z"/>
<path class="st13" d="M199.6,248.9c5.9,0,10.7,4.8,10.7,10.7c0,5.9-4.8,10.7-10.7,10.7c-5.9,0-10.7-4.8-10.7-10.7
	C188.9,253.7,193.7,248.9,199.6,248.9 M199.6,247.2c-6.8,0-12.4,5.5-12.4,12.4c0,6.8,5.5,12.4,12.4,12.4c6.8,0,12.4-5.5,12.4-12.4
	C211.9,252.7,206.4,247.2,199.6,247.2L199.6,247.2z"/>
<path class="st24" d="M194.4,263.9c-0.5-0.2-0.8-0.5-1-1c-0.4-1.2-0.6-6.2,0.3-7.1c0.3-0.3,0.7-0.5,1.1-0.6c2.2-0.2,9.2-0.2,10,0.1
	c0.5,0.2,0.8,0.5,1,0.9c0.5,1.2,0.5,5.7-0.1,6.9c-0.1,0.3-0.4,0.5-0.7,0.7C204.1,264.2,195.5,264.2,194.4,263.9z M198,261.5
	c1.3-0.7,2.7-1.4,4-2.1c-1.4-0.7-2.7-1.4-4-2.1C198,258.7,198,260.1,198,261.5z"/>
<g>
	<path class="st25" d="M59.7,148.9c-0.4-0.1-0.7-0.3-0.9-0.5l0.3-0.6c0.2,0.2,0.5,0.4,0.8,0.5c0.3,0.1,0.7,0.2,1.1,0.2
		c0.5,0,0.8-0.1,1.1-0.2c0.2-0.2,0.4-0.4,0.4-0.6c0-0.2-0.1-0.4-0.2-0.5c-0.1-0.1-0.3-0.2-0.5-0.3c-0.2-0.1-0.5-0.1-0.8-0.2
		c-0.4-0.1-0.8-0.2-1-0.3c-0.3-0.1-0.5-0.3-0.7-0.5c-0.2-0.2-0.3-0.5-0.3-0.9c0-0.3,0.1-0.6,0.2-0.8c0.2-0.2,0.4-0.4,0.7-0.6
		c0.3-0.1,0.7-0.2,1.2-0.2c0.3,0,0.7,0,1,0.1c0.3,0.1,0.6,0.2,0.8,0.4l-0.3,0.7c-0.2-0.2-0.5-0.3-0.8-0.3c-0.3-0.1-0.5-0.1-0.8-0.1
		c-0.5,0-0.8,0.1-1,0.3c-0.2,0.2-0.3,0.4-0.3,0.7c0,0.2,0.1,0.4,0.2,0.5c0.1,0.1,0.3,0.2,0.5,0.3c0.2,0.1,0.5,0.1,0.8,0.2
		c0.4,0.1,0.8,0.2,1,0.3c0.3,0.1,0.5,0.3,0.7,0.5s0.3,0.5,0.3,0.9c0,0.3-0.1,0.6-0.2,0.8c-0.2,0.2-0.4,0.4-0.7,0.6
		c-0.3,0.1-0.7,0.2-1.2,0.2C60.6,149.1,60.1,149,59.7,148.9z"/>
	<path class="st25" d="M67.1,148.7c-0.5-0.3-0.8-0.6-1.1-1.1c-0.3-0.4-0.4-0.9-0.4-1.5c0-0.5,0.1-1,0.4-1.5c0.3-0.4,0.6-0.8,1.1-1
		c0.5-0.3,1-0.4,1.6-0.4c0.6,0,1.1,0.1,1.6,0.4c0.5,0.3,0.8,0.6,1.1,1c0.3,0.4,0.4,0.9,0.4,1.5c0,0.6-0.1,1.1-0.4,1.5
		c-0.3,0.4-0.6,0.8-1.1,1c-0.5,0.3-1,0.4-1.6,0.4C68.1,149.1,67.6,149,67.1,148.7z M69.8,148.1c0.3-0.2,0.6-0.5,0.8-0.8
		c0.2-0.3,0.3-0.7,0.3-1.1c0-0.4-0.1-0.8-0.3-1.1c-0.2-0.3-0.5-0.6-0.8-0.8c-0.3-0.2-0.7-0.3-1.1-0.3c-0.4,0-0.8,0.1-1.1,0.3
		c-0.3,0.2-0.6,0.5-0.8,0.8c-0.2,0.3-0.3,0.7-0.3,1.1c0,0.4,0.1,0.8,0.3,1.1c0.2,0.3,0.5,0.6,0.8,0.8c0.3,0.2,0.7,0.3,1.1,0.3
		C69.1,148.4,69.5,148.3,69.8,148.1z"/>
	<path class="st25" d="M75.7,148.7c-0.5-0.3-0.8-0.6-1.1-1c-0.3-0.4-0.4-0.9-0.4-1.5c0-0.6,0.1-1.1,0.4-1.5c0.3-0.4,0.6-0.8,1.1-1
		c0.5-0.3,1-0.4,1.6-0.4c0.4,0,0.9,0.1,1.2,0.2c0.4,0.1,0.7,0.4,0.9,0.7l-0.5,0.5c-0.4-0.5-1-0.7-1.6-0.7c-0.4,0-0.8,0.1-1.2,0.3
		c-0.3,0.2-0.6,0.5-0.8,0.8c-0.2,0.3-0.3,0.7-0.3,1.1c0,0.4,0.1,0.8,0.3,1.1c0.2,0.3,0.5,0.6,0.8,0.8c0.3,0.2,0.7,0.3,1.2,0.3
		c0.6,0,1.2-0.2,1.6-0.7l0.5,0.5c-0.3,0.3-0.6,0.5-1,0.7c-0.4,0.2-0.8,0.2-1.2,0.2C76.7,149.1,76.2,149,75.7,148.7z"/>
	<path class="st25" d="M82.3,143.3h0.8v5.7h-0.8V143.3z"/>
	<path class="st25" d="M90.2,147.6h-3l-0.6,1.4h-0.8l2.6-5.7h0.8l2.6,5.7h-0.9L90.2,147.6z M89.9,146.9l-1.2-2.8l-1.2,2.8H89.9z"/>
	<path class="st25" d="M94.3,143.3h0.8v5h3.1v0.7h-3.9V143.3z"/>
	<path class="st25" d="M110,149l0-4.2l-2.1,3.5h-0.4l-2.1-3.4v4.1h-0.8v-5.7h0.7l2.4,4l2.4-4h0.7l0,5.7H110z"/>
	<path class="st25" d="M118.4,148.3v0.7h-4.2v-5.7h4v0.7h-3.2v1.8h2.9v0.7h-2.9v1.8H118.4z"/>
	<path class="st25" d="M121.5,143.3h2.4c0.6,0,1.1,0.1,1.6,0.4c0.5,0.2,0.8,0.6,1.1,1c0.3,0.4,0.4,0.9,0.4,1.5
		c0,0.6-0.1,1.1-0.4,1.5s-0.6,0.8-1.1,1c-0.5,0.2-1,0.4-1.6,0.4h-2.4V143.3z M123.8,148.3c0.5,0,0.9-0.1,1.2-0.3
		c0.4-0.2,0.6-0.4,0.8-0.8c0.2-0.3,0.3-0.7,0.3-1.1c0-0.4-0.1-0.8-0.3-1.1c-0.2-0.3-0.5-0.6-0.8-0.8c-0.4-0.2-0.8-0.3-1.2-0.3h-1.5
		v4.3H123.8z"/>
	<path class="st25" d="M129.9,143.3h0.8v5.7h-0.8V143.3z"/>
	<path class="st25" d="M137.8,147.6h-3l-0.6,1.4h-0.8l2.6-5.7h0.8l2.6,5.7h-0.9L137.8,147.6z M137.5,146.9l-1.2-2.8l-1.2,2.8H137.5z
		"/>
	<path class="st25" d="M145.8,143.3h0.8v5.7h-0.8V143.3z"/>
	<path class="st25" d="M151,148.7c-0.5-0.3-0.8-0.6-1.1-1c-0.3-0.4-0.4-0.9-0.4-1.5c0-0.6,0.1-1.1,0.4-1.5c0.3-0.4,0.6-0.8,1.1-1
		c0.5-0.3,1-0.4,1.6-0.4c0.4,0,0.9,0.1,1.2,0.2c0.4,0.1,0.7,0.4,0.9,0.7l-0.5,0.5c-0.4-0.5-1-0.7-1.6-0.7c-0.4,0-0.8,0.1-1.2,0.3
		c-0.3,0.2-0.6,0.5-0.8,0.8c-0.2,0.3-0.3,0.7-0.3,1.1c0,0.4,0.1,0.8,0.3,1.1c0.2,0.3,0.5,0.6,0.8,0.8c0.3,0.2,0.7,0.3,1.2,0.3
		c0.6,0,1.2-0.2,1.6-0.7l0.5,0.5c-0.3,0.3-0.6,0.5-1,0.7c-0.4,0.2-0.8,0.2-1.2,0.2C152,149.1,151.5,149,151,148.7z"/>
	<path class="st25" d="M158.6,148.7c-0.5-0.3-0.8-0.6-1.1-1.1c-0.3-0.4-0.4-0.9-0.4-1.5c0-0.5,0.1-1,0.4-1.5c0.3-0.4,0.6-0.8,1.1-1
		c0.5-0.3,1-0.4,1.6-0.4c0.6,0,1.1,0.1,1.6,0.4c0.5,0.3,0.8,0.6,1.1,1c0.3,0.4,0.4,0.9,0.4,1.5c0,0.6-0.1,1.1-0.4,1.5
		c-0.3,0.4-0.6,0.8-1.1,1c-0.5,0.3-1,0.4-1.6,0.4C159.5,149.1,159,149,158.6,148.7z M161.2,148.1c0.3-0.2,0.6-0.5,0.8-0.8
		c0.2-0.3,0.3-0.7,0.3-1.1c0-0.4-0.1-0.8-0.3-1.1c-0.2-0.3-0.5-0.6-0.8-0.8c-0.3-0.2-0.7-0.3-1.1-0.3s-0.8,0.1-1.1,0.3
		c-0.3,0.2-0.6,0.5-0.8,0.8c-0.2,0.3-0.3,0.7-0.3,1.1c0,0.4,0.1,0.8,0.3,1.1c0.2,0.3,0.5,0.6,0.8,0.8c0.3,0.2,0.7,0.3,1.1,0.3
		S160.9,148.3,161.2,148.1z"/>
	<path class="st25" d="M171,143.3v5.7h-0.7l-3.4-4.3v4.3h-0.8v-5.7h0.7l3.4,4.3v-4.3H171z"/>
	<path class="st25" d="M174.9,148.9c-0.4-0.1-0.7-0.3-0.9-0.5l0.3-0.6c0.2,0.2,0.5,0.4,0.8,0.5c0.3,0.1,0.7,0.2,1.1,0.2
		c0.5,0,0.8-0.1,1.1-0.2c0.2-0.2,0.4-0.4,0.4-0.6c0-0.2-0.1-0.4-0.2-0.5c-0.1-0.1-0.3-0.2-0.5-0.3c-0.2-0.1-0.5-0.1-0.8-0.2
		c-0.4-0.1-0.8-0.2-1-0.3c-0.3-0.1-0.5-0.3-0.7-0.5c-0.2-0.2-0.3-0.5-0.3-0.9c0-0.3,0.1-0.6,0.2-0.8c0.2-0.2,0.4-0.4,0.7-0.6
		c0.3-0.1,0.7-0.2,1.2-0.2c0.3,0,0.7,0,1,0.1c0.3,0.1,0.6,0.2,0.8,0.4l-0.3,0.7c-0.2-0.2-0.5-0.3-0.8-0.3c-0.3-0.1-0.5-0.1-0.8-0.1
		c-0.5,0-0.8,0.1-1,0.3c-0.2,0.2-0.3,0.4-0.3,0.7c0,0.2,0.1,0.4,0.2,0.5c0.1,0.1,0.3,0.2,0.5,0.3c0.2,0.1,0.5,0.1,0.8,0.2
		c0.4,0.1,0.8,0.2,1,0.3c0.3,0.1,0.5,0.3,0.7,0.5c0.2,0.2,0.3,0.5,0.3,0.9c0,0.3-0.1,0.6-0.2,0.8c-0.2,0.2-0.4,0.4-0.7,0.6
		c-0.3,0.1-0.7,0.2-1.2,0.2C175.7,149.1,175.3,149,174.9,148.9z"/>
	<path class="st25" d="M186.8,142.1h0.7l-2.7,7.7h-0.7L186.8,142.1z"/>
	<path class="st25" d="M193.7,143.3h0.8v5h3.1v0.7h-3.9V143.3z"/>
	<path class="st25" d="M201.2,148.7c-0.5-0.3-0.8-0.6-1.1-1.1c-0.3-0.4-0.4-0.9-0.4-1.5c0-0.5,0.1-1,0.4-1.5c0.3-0.4,0.6-0.8,1.1-1
		c0.5-0.3,1-0.4,1.6-0.4c0.6,0,1.1,0.1,1.6,0.4c0.5,0.3,0.8,0.6,1.1,1c0.3,0.4,0.4,0.9,0.4,1.5c0,0.6-0.1,1.1-0.4,1.5
		c-0.3,0.4-0.6,0.8-1.1,1c-0.5,0.3-1,0.4-1.6,0.4C202.1,149.1,201.6,149,201.2,148.7z M203.8,148.1c0.3-0.2,0.6-0.5,0.8-0.8
		c0.2-0.3,0.3-0.7,0.3-1.1c0-0.4-0.1-0.8-0.3-1.1c-0.2-0.3-0.5-0.6-0.8-0.8c-0.3-0.2-0.7-0.3-1.1-0.3c-0.4,0-0.8,0.1-1.1,0.3
		c-0.3,0.2-0.6,0.5-0.8,0.8c-0.2,0.3-0.3,0.7-0.3,1.1c0,0.4,0.1,0.8,0.3,1.1c0.2,0.3,0.5,0.6,0.8,0.8c0.3,0.2,0.7,0.3,1.1,0.3
		C203.1,148.4,203.5,148.3,203.8,148.1z"/>
	<path class="st25" d="M212.7,146.1h0.8v2.2c-0.3,0.2-0.6,0.4-1,0.5c-0.4,0.1-0.8,0.2-1.2,0.2c-0.6,0-1.1-0.1-1.6-0.4
		c-0.5-0.3-0.8-0.6-1.1-1c-0.3-0.4-0.4-0.9-0.4-1.5c0-0.6,0.1-1.1,0.4-1.5c0.3-0.4,0.6-0.8,1.1-1c0.5-0.3,1-0.4,1.6-0.4
		c0.5,0,0.9,0.1,1.2,0.2c0.4,0.1,0.7,0.4,1,0.7l-0.5,0.5c-0.5-0.4-1-0.7-1.7-0.7c-0.4,0-0.8,0.1-1.2,0.3c-0.3,0.2-0.6,0.4-0.8,0.8
		c-0.2,0.3-0.3,0.7-0.3,1.1c0,0.4,0.1,0.8,0.3,1.1c0.2,0.3,0.5,0.6,0.8,0.8c0.3,0.2,0.7,0.3,1.2,0.3c0.5,0,1-0.1,1.3-0.4V146.1z"/>
	<path class="st25" d="M217.8,148.7c-0.5-0.3-0.8-0.6-1.1-1.1c-0.3-0.4-0.4-0.9-0.4-1.5c0-0.5,0.1-1,0.4-1.5c0.3-0.4,0.6-0.8,1.1-1
		c0.5-0.3,1-0.4,1.6-0.4c0.6,0,1.1,0.1,1.6,0.4c0.5,0.3,0.8,0.6,1.1,1c0.3,0.4,0.4,0.9,0.4,1.5c0,0.6-0.1,1.1-0.4,1.5
		c-0.3,0.4-0.6,0.8-1.1,1c-0.5,0.3-1,0.4-1.6,0.4C218.7,149.1,218.2,149,217.8,148.7z M220.4,148.1c0.3-0.2,0.6-0.5,0.8-0.8
		c0.2-0.3,0.3-0.7,0.3-1.1c0-0.4-0.1-0.8-0.3-1.1c-0.2-0.3-0.5-0.6-0.8-0.8c-0.3-0.2-0.7-0.3-1.1-0.3c-0.4,0-0.8,0.1-1.1,0.3
		c-0.3,0.2-0.6,0.5-0.8,0.8c-0.2,0.3-0.3,0.7-0.3,1.1c0,0.4,0.1,0.8,0.3,1.1c0.2,0.3,0.5,0.6,0.8,0.8c0.3,0.2,0.7,0.3,1.1,0.3
		C219.7,148.4,220.1,148.3,220.4,148.1z"/>
	<path class="st25" d="M225.7,148.9c-0.4-0.1-0.7-0.3-0.9-0.5l0.3-0.6c0.2,0.2,0.5,0.4,0.8,0.5c0.3,0.1,0.7,0.2,1.1,0.2
		c0.5,0,0.8-0.1,1.1-0.2c0.2-0.2,0.4-0.4,0.4-0.6c0-0.2-0.1-0.4-0.2-0.5c-0.1-0.1-0.3-0.2-0.5-0.3c-0.2-0.1-0.5-0.1-0.8-0.2
		c-0.4-0.1-0.8-0.2-1-0.3c-0.3-0.1-0.5-0.3-0.7-0.5c-0.2-0.2-0.3-0.5-0.3-0.9c0-0.3,0.1-0.6,0.2-0.8c0.2-0.2,0.4-0.4,0.7-0.6
		c0.3-0.1,0.7-0.2,1.2-0.2c0.3,0,0.7,0,1,0.1c0.3,0.1,0.6,0.2,0.8,0.4l-0.3,0.7c-0.2-0.2-0.5-0.3-0.8-0.3c-0.3-0.1-0.5-0.1-0.8-0.1
		c-0.5,0-0.8,0.1-1,0.3c-0.2,0.2-0.3,0.4-0.3,0.7c0,0.2,0.1,0.4,0.2,0.5c0.1,0.1,0.3,0.2,0.5,0.3c0.2,0.1,0.5,0.1,0.8,0.2
		c0.4,0.1,0.8,0.2,1,0.3c0.3,0.1,0.5,0.3,0.7,0.5c0.2,0.2,0.3,0.5,0.3,0.9c0,0.3-0.1,0.6-0.2,0.8c-0.2,0.2-0.4,0.4-0.7,0.6
		c-0.3,0.1-0.7,0.2-1.2,0.2C226.6,149.1,226.1,149,225.7,148.9z"/>
</g>
</svg>
